<?xml version="1.0" encoding="utf-8"?>
<svg className="company-card-logo" xmlns="http://www.w3.org/2000/svg" viewBox="147.2067 46.839 216.8157 32.4194" width="250"
    height="32.4194px">
    <path
        d="M 148.643 61.839 C 147.777 61.839 147.084 61.106 147.225 60.251 C 148.485 52.645 155.159 46.839 163.378 46.839 L 166.758 46.839 C 167.468 46.839 168.044 47.415 168.044 48.125 C 168.044 55.699 161.904 61.839 154.33 61.839 L 148.643 61.839 Z"
        fill="white" transform="matrix(1, 0, 0, 1, 0, 1.4210854715202004e-14)" />
    <path
        d="M 148.642 63.839 C 147.777 63.839 147.084 64.573 147.225 65.427 C 148.485 73.033 155.159 78.839 163.378 78.839 L 166.758 78.839 C 167.468 78.839 168.044 78.264 168.044 77.554 C 168.044 69.979 161.904 63.839 154.33 63.839 L 148.642 63.839 Z"
        fill="white" transform="matrix(1, 0, 0, 1, 0, 1.4210854715202004e-14)" />
    <path
        d="M 183.758 63.839 C 176.184 63.839 170.044 69.979 170.044 77.554 C 170.044 78.264 170.62 78.839 171.33 78.839 L 174.71 78.839 C 182.929 78.839 189.603 73.033 190.862 65.427 C 191.004 64.573 190.311 63.839 189.445 63.839 L 183.758 63.839 Z"
        fill="white" transform="matrix(1, 0, 0, 1, 0, 1.4210854715202004e-14)" />
    <path
        d="M 189.445 61.839 C 190.311 61.839 191.004 61.106 190.862 60.251 C 189.603 52.645 182.929 46.839 174.71 46.839 L 171.33 46.839 C 170.62 46.839 170.044 47.415 170.044 48.125 C 170.044 55.699 176.184 61.839 183.758 61.839 L 189.445 61.839 Z"
        fill="white" transform="matrix(1, 0, 0, 1, 0, 1.4210854715202004e-14)" />
    <text
        style="white-space: pre; fill: white; font-family: Plus Jakarta Sans Variable,sans-serif; font-size: 28px; font-weight: 600;"
        x="240.909" y="62.242"
        transform="matrix(1, 0, 0, 1, -40.74594497680664, 11.016365051269545)">CONTROL D<tspan
            x="240.90899658203125" dy="1em">​</tspan></text>
</svg>