<?xml version="1.0" encoding="utf-8"?>
<svg className="company-card-logo" xmlns="http://www.w3.org/2000/svg" viewBox="5.366 5.608 269.8287 44.459" width="269.829px"
    height="44.459px">
    <path
        d="M 30.243 5.608 C 22.633 5.608 18.431 12.392 18.431 19.016 L 42.054 19.016 C 42.054 12.392 37.315 5.608 30.243 5.608 Z"
        fill="#cfcfcf" style=""
        transform="matrix(1, 0, 0, 1, -3.552713678800501e-15, -7.105427357601002e-15)" />
    <path
        d="M 30.243 8.123 C 24.061 8.123 20.648 13.634 20.648 19.016 L 30.243 20.159 L 39.838 19.016 C 39.838 13.634 35.987 8.123 30.243 8.123 Z"
        fill="#585e62" style=""
        transform="matrix(1, 0, 0, 1, -3.552713678800501e-15, -7.105427357601002e-15)" />
    <path
        d="M 9.411 40.578 C 8.718 40.58 8.283 39.792 8.629 39.162 C 8.772 38.9 9.025 38.725 9.311 38.693 C 10.783 38.519 11.526 36.734 10.646 35.48 C 9.767 34.226 7.924 34.443 7.331 35.87 C 7.091 36.448 7.121 37.109 7.41 37.661 C 7.723 38.31 7.249 39.072 6.556 39.031 C 6.259 39.014 5.989 38.843 5.835 38.574 C 4.45 35.935 6.302 32.71 9.169 32.768 C 12.037 32.825 13.769 36.124 12.288 38.705 C 11.691 39.745 10.666 40.435 9.516 40.573 C 9.481 40.575 9.446 40.578 9.411 40.578 Z"
        fill="#585e62" style=""
        transform="matrix(1, 0, 0, 1, -3.552713678800501e-15, -7.105427357601002e-15)" />
    <rect fill="#cfcfcf" height="6.746" rx="49.42"
        transform="matrix(0.8808389902114868, 0.4734160304069519, -0.4380510151386261, 0.8998460173606873, 17.14142036437988, 5.338766098022454)"
        width="4.762" x="4.106" y="21.895" style="" />
    <path
        d="M 13.54 24.233 L 16.057 25.586 C 16.057 25.586 16.057 25.586 16.057 25.586 L 14.119 29.566 C 13.764 30.297 12.912 30.585 12.218 30.212 C 11.523 29.839 11.248 28.944 11.604 28.213 L 13.54 24.233 C 13.54 24.233 13.54 24.233 13.54 24.233 Z"
        fill="#585e62" style="transform-origin: -101.12px 89.638px;" />
    <circle cx="-219.41" cy="247.179" fill="#cfcfcf" r="75.05" style=""
        transform="matrix(0.04500400274991989, 0, 0, 0.04728900268673897, 25.26171493530273, 12.244744300842278)" />
    <path
        d="M 16.984 20.825 C 15.627 20.039 13.934 20.325 12.879 21.517 C 15.477 21.643 16.972 24.675 15.57 26.976 C 15.462 27.156 15.338 27.323 15.201 27.478 C 17.798 27.602 19.549 24.724 18.351 22.299 C 18.044 21.676 17.569 21.163 16.984 20.825 Z"
        fill="#b1b1b1" style=""
        transform="matrix(1, 0, 0, 1, -3.552713678800501e-15, -7.105427357601002e-15)" />
    <path
        d="M 51.198 40.578 C 51.163 40.578 51.129 40.575 51.096 40.573 C 48.245 40.235 46.811 36.781 48.516 34.356 C 50.219 31.931 53.782 32.353 54.929 35.116 C 55.391 36.231 55.334 37.509 54.775 38.574 C 54.463 39.224 53.598 39.273 53.219 38.664 C 53.029 38.362 53.023 37.972 53.201 37.661 C 53.917 36.298 52.961 34.629 51.479 34.658 C 49.996 34.686 49.1 36.39 49.865 37.725 C 50.173 38.264 50.704 38.621 51.299 38.693 C 51.988 38.771 52.337 39.605 51.927 40.192 C 51.756 40.435 51.486 40.579 51.199 40.578 L 51.198 40.578 Z"
        fill="#585e62" style=""
        transform="matrix(1, 0, 0, 1, -3.552713678800501e-15, -7.105427357601002e-15)" />
    <rect fill="#cfcfcf" height="6.746" rx="49.42"
        transform="matrix(-0.8808389902114868, 0.4734160304069519, -0.4380510151386261, -0.8998460173606873, 98.57591247558592, 33.09482192993163)"
        width="4.762" x="41.537" y="21.895" style="" />
    <path
        d="M 48.39 30.215 C 47.696 30.589 46.844 30.298 46.489 29.569 L 44.551 25.589 C 44.551 25.589 44.551 25.589 44.551 25.589 L 47.068 24.236 C 47.068 24.236 47.068 24.236 47.068 24.236 L 49.005 28.216 C 49.36 28.946 49.085 29.841 48.39 30.215 Z"
        fill="#585e62" style="transform-origin: 24.74px 89.647px;" />
    <circle cx="443.526" cy="247.179" fill="#cfcfcf" r="75.05" style=""
        transform="matrix(0.04500400274991989, 0, 0, 0.04728900268673897, 25.26171493530273, 12.244744300842278)" />
    <path
        d="M 43.624 20.825 C 44.981 20.039 46.673 20.325 47.728 21.517 C 45.131 21.643 43.637 24.677 45.04 26.977 C 45.149 27.156 45.271 27.323 45.408 27.478 C 42.812 27.604 41.058 24.728 42.254 22.302 C 42.561 21.677 43.037 21.165 43.624 20.825 Z"
        fill="#b1b1b1" style=""
        transform="matrix(1, 0, 0, 1, -3.552713678800501e-15, -7.105427357601002e-15)" />
    <path
        d="M 16.566 50.067 C 14.916 50.067 13.551 48.183 13.168 45.38 C 12.963 43.875 13.066 42.297 13.46 40.935 C 13.883 39.467 14.607 38.4 15.498 37.922 C 15.828 37.742 16.194 37.647 16.565 37.645 L 21.224 37.645 L 21.224 50.067 L 16.566 50.067 Z"
        fill="#585e62" style=""
        transform="matrix(1, 0, 0, 1, -3.552713678800501e-15, -7.105427357601002e-15)" />
    <path
        d="M 21.186 50.067 C 20.229 50.067 19.437 48.183 19.215 45.38 C 19.097 43.875 19.156 42.297 19.385 40.935 C 19.631 39.467 20.05 38.4 20.566 37.922 C 20.765 37.739 20.972 37.645 21.185 37.645 C 21.398 37.645 21.605 37.74 21.803 37.919 L 24.04 39.992 C 24.821 40.716 25.093 43.018 24.951 44.816 C 24.842 46.2 24.5 47.283 24.042 47.713 L 21.806 49.785 C 21.606 49.974 21.398 50.067 21.186 50.067 Z"
        fill="#585e62" style=""
        transform="matrix(1, 0, 0, 1, -3.552713678800501e-15, -7.105427357601002e-15)" />
    <path
        d="M 21.597 38.662 L 23.831 40.733 C 24.334 41.201 24.632 42.978 24.496 44.701 C 24.407 45.849 24.144 46.684 23.831 46.977 L 21.597 49.047 C 20.762 49.822 19.897 48.129 19.669 45.261 C 19.444 42.393 19.94 39.44 20.776 38.663 C 21.052 38.408 21.338 38.425 21.597 38.662 Z"
        fill="#35393b" style=""
        transform="matrix(1, 0, 0, 1, -3.552713678800501e-15, -7.105427357601002e-15)" />
    <path
        d="M 43.657 50.067 C 45.306 50.067 46.671 48.183 47.055 45.38 C 47.259 43.875 47.156 42.297 46.762 40.935 C 46.339 39.467 45.615 38.4 44.723 37.922 C 44.394 37.742 44.028 37.647 43.658 37.645 L 38.998 37.645 L 38.998 50.067 L 43.657 50.067 Z"
        fill="#585e62" style=""
        transform="matrix(1, 0, 0, 1, -3.552713678800501e-15, -7.105427357601002e-15)" />
    <path
        d="M 39.037 50.067 C 39.993 50.067 40.785 48.183 41.007 45.38 C 41.125 43.875 41.065 42.297 40.837 40.935 C 40.592 39.467 40.172 38.4 39.655 37.922 C 39.457 37.739 39.25 37.645 39.038 37.645 C 38.824 37.645 38.617 37.74 38.418 37.919 L 36.182 39.992 C 35.399 40.716 35.128 43.018 35.271 44.816 C 35.38 46.2 35.722 47.283 36.181 47.713 L 38.416 49.785 C 38.616 49.974 38.825 50.067 39.037 50.067 Z"
        fill="#585e62" style=""
        transform="matrix(1, 0, 0, 1, -3.552713678800501e-15, -7.105427357601002e-15)" />
    <path
        d="M 38.626 38.662 L 36.391 40.733 C 35.887 41.199 35.589 42.975 35.727 44.699 C 35.816 45.846 36.078 46.683 36.391 46.974 L 38.626 49.045 C 39.462 49.822 40.325 48.126 40.552 45.259 C 40.779 42.391 40.282 39.438 39.447 38.662 C 39.168 38.408 38.883 38.425 38.626 38.662 Z"
        fill="#35393b" style=""
        transform="matrix(1, 0, 0, 1, -3.552713678800501e-15, -7.105427357601002e-15)" />
    <path
        d="M 43.563 26.952 C 43.363 26.25 43.354 25.504 43.536 24.796 C 44.201 22.284 43.764 19.511 43.764 19.511 C 35.435 16.779 30.257 19.488 30.257 19.488 C 30.257 19.488 25.091 16.763 16.756 19.467 C 16.756 19.467 16.311 22.24 16.969 24.754 C 17.148 25.464 17.137 26.21 16.937 26.911 C 16.706 27.742 16.455 29.015 16.453 30.637 C 16.436 42.412 30.224 46.057 30.224 46.057 C 30.224 46.057 44.022 42.455 44.038 30.68 C 44.038 29.058 43.791 27.786 43.563 26.952 Z"
        fill="#cfcfcf" style=""
        transform="matrix(1, 0, 0, 1, -3.552713678800501e-15, -7.105427357601002e-15)" />
    <path
        d="M 30.227 43.858 C 27.945 43.107 18.45 39.448 18.463 30.641 C 18.463 29.238 18.682 28.161 18.868 27.504 C 19.173 26.426 19.187 25.28 18.909 24.195 C 18.63 23.127 18.598 21.965 18.631 21.106 C 20.452 20.623 22.24 20.379 23.959 20.383 C 27.364 20.389 29.353 21.375 29.374 21.384 L 30.292 21.868 L 31.157 21.379 C 31.162 21.379 33.153 20.398 36.558 20.403 C 38.278 20.407 40.063 20.654 41.885 21.144 C 41.915 22.002 41.88 23.165 41.598 24.232 C 41.317 25.316 41.327 26.463 41.629 27.541 C 41.809 28.199 42.027 29.276 42.024 30.679 C 42.011 39.526 32.516 43.12 30.227 43.858 Z"
        fill="#49b04a" style=""
        transform="matrix(1, 0, 0, 1, -3.552713678800501e-15, -7.105427357601002e-15)" />
    <path
        d="M 32.829 28.248 C 32.833 26.155 30.681 24.844 28.955 25.886 C 27.228 26.927 27.223 29.543 28.945 30.592 C 29.171 30.73 29.418 30.831 29.671 30.892 L 28.218 37.298 L 30.229 37.905 L 32.242 37.304 L 30.808 30.894 C 31.987 30.617 32.827 29.518 32.829 28.248 Z"
        fill="#35393b" style=""
        transform="matrix(1, 0, 0, 1, -3.552713678800501e-15, -7.105427357601002e-15)" />
    <g fill="#49b04a"
        transform="matrix(0.04500400274991989, 0, 0, 0.04728900268673897, 5.369626998901364, 5.607834815978997)"
        style="">
        <path
            d="m454.94 131.08a60.64 60.64 0 0 0 -60.64 60.64h121.28a60.64 60.64 0 0 0 -60.64-60.64z" />
        <path
            d="m642.38 131.08a60.64 60.64 0 0 0 -60.64 60.64h121.26a60.64 60.64 0 0 0 -60.62-60.64z" />
        <circle cx="483.23" cy="229.43" r="11.52" />
        <circle cx="528.52" cy="229.43" r="11.52" />
        <circle cx="573.8" cy="229.43" r="11.52" />
        <circle cx="619.09" cy="229.43" r="11.52" />
    </g>
    <g id="svgGroup" stroke-linecap="round" fill-rule="evenodd" font-size="9pt" stroke="#49b04a"
        stroke-width="1.2mm" fill="#49b04a"
        style="stroke: rgb(73, 176, 74); stroke-width: 1.2mm; fill: rgb(73, 176, 74);"
        transform="matrix(0.2862500250339508, 0, 0, 0.272909015417099, 69.49819946289061, 19.903041839599602)">
        <path
            d="M 394.701 2.701 L 421.201 42.801 L 417.701 42.701 L 444.501 2.701 A 4.688 4.688 0 0 1 445.435 1.673 Q 446.486 0.833 447.901 0.901 Q 449.501 1.001 450.701 2.101 A 3.646 3.646 0 0 1 451.882 4.562 A 5.031 5.031 0 0 1 451.901 5.001 L 451.901 66.901 A 3.946 3.946 0 0 1 450.738 69.763 A 4.757 4.757 0 0 1 450.701 69.801 A 4.048 4.048 0 0 1 447.816 70.999 A 5.316 5.316 0 0 1 447.701 71.001 A 4.436 4.436 0 0 1 446.121 70.728 A 3.986 3.986 0 0 1 444.701 69.801 Q 443.501 68.601 443.501 66.901 L 443.501 12.601 L 446.001 13.101 L 422.401 49.001 A 5.629 5.629 0 0 1 421.108 50.105 A 6.399 6.399 0 0 1 420.951 50.201 A 3.642 3.642 0 0 1 419.937 50.615 A 3.204 3.204 0 0 1 419.201 50.701 A 3.465 3.465 0 0 1 417.91 50.444 A 4.409 4.409 0 0 1 417.401 50.201 A 5.772 5.772 0 0 1 416.393 49.497 A 4.92 4.92 0 0 1 415.901 49.001 L 392.601 13.101 L 394.701 10.501 L 394.701 66.901 Q 394.701 68.601 393.601 69.801 A 3.604 3.604 0 0 1 390.972 70.998 A 4.691 4.691 0 0 1 390.801 71.001 A 3.904 3.904 0 0 1 389.46 70.779 A 3.39 3.39 0 0 1 388.051 69.801 A 4.221 4.221 0 0 1 387.003 67.059 A 5.393 5.393 0 0 1 387.001 66.901 L 387.001 5.001 A 4.069 4.069 0 0 1 388.071 2.239 A 5.241 5.241 0 0 1 388.151 2.151 Q 389.301 0.901 391.101 0.901 Q 391.916 0.901 392.855 1.311 A 6.702 6.702 0 0 1 393.051 1.401 Q 394.101 1.901 394.701 2.701 Z M 68.801 66.901 L 68.801 5.001 Q 68.801 3.301 69.951 2.151 A 3.861 3.861 0 0 1 72.748 1.001 A 4.988 4.988 0 0 1 72.801 1.001 L 100.401 1.001 A 21.166 21.166 0 0 1 106.971 1.997 A 19.092 19.092 0 0 1 110.501 3.551 Q 115.001 6.101 117.651 10.551 Q 120.301 15.001 120.301 20.801 A 19.392 19.392 0 0 1 118.847 28.307 A 18.795 18.795 0 0 1 118.701 28.651 Q 117.101 32.301 114.301 34.951 Q 111.501 37.601 107.901 39.001 L 105.701 37.401 Q 109.101 38.201 111.801 40.251 A 15.895 15.895 0 0 1 116.147 45.352 A 18.223 18.223 0 0 1 116.201 45.451 Q 117.901 48.601 118.001 52.801 A 129.984 129.984 0 0 0 118.107 54.557 Q 118.276 57.051 118.501 58.701 A 19.048 19.048 0 0 0 118.717 59.983 Q 118.986 61.281 119.394 62.137 A 5.661 5.661 0 0 0 119.401 62.151 A 4.782 4.782 0 0 0 120.432 63.582 A 4.492 4.492 0 0 0 121.101 64.101 Q 122.501 65.001 122.951 66.501 A 3.231 3.231 0 0 1 123.088 67.308 Q 123.117 68.071 122.757 68.808 A 4.19 4.19 0 0 1 122.401 69.401 A 3.077 3.077 0 0 1 120.819 70.611 A 3.86 3.86 0 0 1 120.701 70.651 Q 119.601 71.001 118.501 70.901 A 4.869 4.869 0 0 1 117.49 70.705 A 3.809 3.809 0 0 1 116.601 70.301 A 9.956 9.956 0 0 1 114.977 69.146 Q 114.227 68.498 113.501 67.651 A 9.522 9.522 0 0 1 112.446 66.12 Q 111.984 65.301 111.585 64.289 A 21.8 21.8 0 0 1 111.001 62.601 A 19.163 19.163 0 0 1 110.441 60.113 Q 110.029 57.562 110.002 54.084 A 63.237 63.237 0 0 1 110.001 53.601 A 16.878 16.878 0 0 0 109.861 51.361 Q 109.707 50.215 109.385 49.255 A 8.55 8.55 0 0 0 109.001 48.301 A 9.587 9.587 0 0 0 107.409 45.914 A 8.602 8.602 0 0 0 106.301 44.901 Q 104.601 43.601 102.501 43.101 Q 100.401 42.601 98.201 42.601 L 75.901 42.601 L 77.101 40.801 L 77.101 66.901 A 4.807 4.807 0 0 1 76.854 68.464 A 4.187 4.187 0 0 1 76.101 69.801 A 3.266 3.266 0 0 1 73.713 70.99 A 4.552 4.552 0 0 1 73.401 71.001 A 5.002 5.002 0 0 1 71.512 70.652 A 4.669 4.669 0 0 1 70.151 69.801 A 4.171 4.171 0 0 1 69.228 68.655 A 3.658 3.658 0 0 1 68.801 66.901 Z M 664.301 66.901 L 664.301 5.001 Q 664.301 3.301 665.451 2.151 A 3.861 3.861 0 0 1 668.248 1.001 A 4.988 4.988 0 0 1 668.301 1.001 L 695.901 1.001 A 21.166 21.166 0 0 1 702.471 1.997 A 19.092 19.092 0 0 1 706.001 3.551 Q 710.501 6.101 713.151 10.551 Q 715.801 15.001 715.801 20.801 A 19.392 19.392 0 0 1 714.347 28.307 A 18.795 18.795 0 0 1 714.201 28.651 Q 712.601 32.301 709.801 34.951 Q 707.001 37.601 703.401 39.001 L 701.201 37.401 Q 704.601 38.201 707.301 40.251 A 15.895 15.895 0 0 1 711.647 45.352 A 18.223 18.223 0 0 1 711.701 45.451 Q 713.401 48.601 713.501 52.801 A 129.984 129.984 0 0 0 713.607 54.557 Q 713.776 57.051 714.001 58.701 A 19.048 19.048 0 0 0 714.217 59.983 Q 714.486 61.281 714.894 62.137 A 5.661 5.661 0 0 0 714.901 62.151 A 4.782 4.782 0 0 0 715.932 63.582 A 4.492 4.492 0 0 0 716.601 64.101 Q 718.001 65.001 718.451 66.501 A 3.231 3.231 0 0 1 718.588 67.308 Q 718.617 68.071 718.257 68.808 A 4.19 4.19 0 0 1 717.901 69.401 A 3.077 3.077 0 0 1 716.319 70.611 A 3.86 3.86 0 0 1 716.201 70.651 Q 715.101 71.001 714.001 70.901 A 4.869 4.869 0 0 1 712.99 70.705 A 3.809 3.809 0 0 1 712.101 70.301 A 9.956 9.956 0 0 1 710.477 69.146 Q 709.727 68.498 709.001 67.651 A 9.522 9.522 0 0 1 707.946 66.12 Q 707.484 65.301 707.085 64.289 A 21.8 21.8 0 0 1 706.501 62.601 A 19.163 19.163 0 0 1 705.941 60.113 Q 705.529 57.562 705.502 54.084 A 63.237 63.237 0 0 1 705.501 53.601 A 16.878 16.878 0 0 0 705.361 51.361 Q 705.207 50.215 704.885 49.255 A 8.55 8.55 0 0 0 704.501 48.301 A 9.587 9.587 0 0 0 702.909 45.914 A 8.602 8.602 0 0 0 701.801 44.901 Q 700.101 43.601 698.001 43.101 Q 695.901 42.601 693.701 42.601 L 671.401 42.601 L 672.601 40.801 L 672.601 66.901 A 4.807 4.807 0 0 1 672.354 68.464 A 4.187 4.187 0 0 1 671.601 69.801 A 3.266 3.266 0 0 1 669.213 70.99 A 4.552 4.552 0 0 1 668.901 71.001 A 5.002 5.002 0 0 1 667.012 70.652 A 4.669 4.669 0 0 1 665.651 69.801 A 4.171 4.171 0 0 1 664.728 68.655 A 3.658 3.658 0 0 1 664.301 66.901 Z M 55.803 6.436 A 4.001 4.001 0 0 0 54.701 5.601 A 32.164 32.164 0 0 0 54.055 5.202 A 34.354 34.354 0 0 0 45.651 1.601 Q 40.701 0.201 35.501 0.201 A 40.872 40.872 0 0 0 34.103 0.224 A 35.359 35.359 0 0 0 21.551 2.901 Q 15.101 5.601 10.251 10.401 Q 5.401 15.201 2.701 21.701 A 33.92 33.92 0 0 0 1.055 26.758 A 39.259 39.259 0 0 0 0.001 36.001 A 44.112 44.112 0 0 0 0.293 41.148 A 35.16 35.16 0 0 0 2.851 50.951 A 38.978 38.978 0 0 0 3.215 51.774 A 33.919 33.919 0 0 0 10.601 62.301 Q 15.501 67.001 21.901 69.501 Q 28.301 72.001 35.501 72.001 Q 39.001 72.001 42.451 71.301 Q 45.901 70.601 49.101 69.351 A 43.474 43.474 0 0 0 51.767 68.209 A 33.961 33.961 0 0 0 54.801 66.601 Q 55.657 66.172 56.141 65.472 A 3.507 3.507 0 0 0 56.701 64.051 Q 56.896 62.913 56.457 61.839 A 5.144 5.144 0 0 0 55.801 60.701 Q 54.801 59.501 53.401 59.301 A 4.394 4.394 0 0 0 52.778 59.256 Q 52.302 59.256 51.826 59.36 A 5.244 5.244 0 0 0 50.601 59.801 Q 47.201 61.901 43.401 63.001 Q 39.601 64.101 35.501 64.101 A 32.842 32.842 0 0 1 33.393 64.034 A 27.91 27.91 0 0 1 24.951 62.201 Q 20.101 60.301 16.451 56.651 A 24.498 24.498 0 0 1 14.321 54.218 A 27.312 27.312 0 0 1 10.701 47.801 Q 8.601 42.601 8.601 36.001 A 35.628 35.628 0 0 1 8.777 32.416 A 29.03 29.03 0 0 1 10.601 24.701 A 29.728 29.728 0 0 1 10.792 24.226 A 26.012 26.012 0 0 1 16.201 15.901 Q 19.801 12.201 24.701 10.151 A 25.415 25.415 0 0 1 28.557 8.891 A 29.53 29.53 0 0 1 35.501 8.101 A 30.549 30.549 0 0 1 35.763 8.102 A 27.389 27.389 0 0 1 43.501 9.251 Q 47.301 10.401 50.601 12.401 A 6.403 6.403 0 0 0 51.175 12.654 Q 52.288 13.08 53.401 13.001 A 2.792 2.792 0 0 0 54.972 12.393 A 3.659 3.659 0 0 0 55.701 11.601 A 5.273 5.273 0 0 0 55.96 11.247 Q 56.871 9.891 56.651 8.301 A 3.394 3.394 0 0 0 55.803 6.436 Z M 491.401 11.301 L 493.601 11.401 L 470.101 68.601 Q 469.701 69.801 468.701 70.501 A 3.973 3.973 0 0 1 467.651 71.034 A 3.376 3.376 0 0 1 466.601 71.201 A 5.721 5.721 0 0 1 465.561 71.112 Q 464.984 71.006 464.536 70.769 A 2.636 2.636 0 0 1 463.801 70.201 Q 462.901 69.201 462.901 67.801 Q 462.831 67.314 462.955 66.779 A 3.81 3.81 0 0 1 463.101 66.301 L 489.001 3.301 A 4.715 4.715 0 0 1 489.486 2.304 A 3.409 3.409 0 0 1 490.551 1.251 A 3.74 3.74 0 0 1 492.558 0.687 A 4.461 4.461 0 0 1 492.901 0.701 Q 494.201 0.701 495.251 1.401 Q 496.301 2.101 496.701 3.301 L 522.501 65.701 A 4.611 4.611 0 0 1 522.79 67.001 A 4.276 4.276 0 0 1 522.801 67.301 A 4.349 4.349 0 0 1 522.625 68.569 A 3.362 3.362 0 0 1 521.601 70.151 Q 520.401 71.201 518.901 71.201 Q 517.701 71.201 516.701 70.501 Q 515.701 69.801 515.201 68.501 L 491.401 11.301 Z M 180.301 7.201 L 157.101 39.501 L 158.401 34.601 L 158.401 66.901 Q 158.401 68.601 157.251 69.801 A 3.92 3.92 0 0 1 155.991 70.699 A 3.678 3.678 0 0 1 154.501 71.001 A 4.405 4.405 0 0 1 153.05 70.771 A 3.758 3.758 0 0 1 151.551 69.801 Q 150.401 68.601 150.401 66.901 L 150.401 35.401 L 151.101 38.001 L 128.601 7.601 Q 128.043 6.857 127.787 6.156 A 4.039 4.039 0 0 1 127.751 6.051 A 4.944 4.944 0 0 1 127.542 5.178 A 4.129 4.129 0 0 1 127.501 4.601 A 3.49 3.49 0 0 1 128.65 1.971 A 4.728 4.728 0 0 1 128.901 1.751 A 5.992 5.992 0 0 1 129.901 1.075 Q 130.562 0.727 131.223 0.634 A 3.438 3.438 0 0 1 131.701 0.601 Q 133.701 0.601 135.001 2.501 L 155.701 30.901 L 153.801 30.601 L 173.701 2.601 A 5.328 5.328 0 0 1 174.581 1.546 A 3.495 3.495 0 0 1 177.001 0.601 A 3.703 3.703 0 0 1 179.741 1.736 A 4.51 4.51 0 0 1 179.851 1.851 Q 181.001 3.101 181.001 4.701 A 5.312 5.312 0 0 1 180.923 5.589 A 6.268 6.268 0 0 1 180.851 5.951 Q 180.701 6.601 180.301 7.201 Z M 373.701 36.001 Q 373.701 43.701 371.201 50.251 A 35.466 35.466 0 0 1 364.48 61.393 A 34.159 34.159 0 0 1 364.201 61.701 Q 359.701 66.601 353.501 69.301 A 32.907 32.907 0 0 1 341.808 71.958 A 38.405 38.405 0 0 1 340.001 72.001 A 35.348 35.348 0 0 1 331.239 70.946 A 30.847 30.847 0 0 1 326.451 69.301 Q 320.301 66.601 315.801 61.701 A 35.381 35.381 0 0 1 308.82 50.302 A 39.696 39.696 0 0 1 308.801 50.251 Q 306.301 43.701 306.301 36.001 A 42.527 42.527 0 0 1 307.277 26.739 A 36.476 36.476 0 0 1 308.801 21.651 Q 311.301 15.101 315.801 10.251 Q 320.301 5.401 326.451 2.701 A 32.307 32.307 0 0 1 337.046 0.112 A 38.605 38.605 0 0 1 340.001 0.001 A 34.568 34.568 0 0 1 349.926 1.395 A 31.445 31.445 0 0 1 353.501 2.701 Q 359.701 5.401 364.201 10.251 Q 368.701 15.101 371.201 21.651 A 38.311 38.311 0 0 1 373.544 32.179 A 45.936 45.936 0 0 1 373.701 36.001 Z M 651.001 36.001 Q 651.001 43.701 648.501 50.251 A 35.466 35.466 0 0 1 641.78 61.393 A 34.159 34.159 0 0 1 641.501 61.701 Q 637.001 66.601 630.801 69.301 A 32.907 32.907 0 0 1 619.108 71.958 A 38.405 38.405 0 0 1 617.301 72.001 A 35.348 35.348 0 0 1 608.539 70.946 A 30.847 30.847 0 0 1 603.751 69.301 Q 597.601 66.601 593.101 61.701 A 35.381 35.381 0 0 1 586.12 50.302 A 39.696 39.696 0 0 1 586.101 50.251 Q 583.601 43.701 583.601 36.001 A 42.527 42.527 0 0 1 584.577 26.739 A 36.476 36.476 0 0 1 586.101 21.651 Q 588.601 15.101 593.101 10.251 Q 597.601 5.401 603.751 2.701 A 32.307 32.307 0 0 1 614.346 0.112 A 38.605 38.605 0 0 1 617.301 0.001 A 34.568 34.568 0 0 1 627.226 1.395 A 31.445 31.445 0 0 1 630.801 2.701 Q 637.001 5.401 641.501 10.251 Q 646.001 15.101 648.501 21.651 A 38.311 38.311 0 0 1 650.844 32.179 A 45.936 45.936 0 0 1 651.001 36.001 Z M 195.601 1.001 L 219.001 1.001 A 19.2 19.2 0 0 1 225.895 2.219 A 17.971 17.971 0 0 1 228.901 3.701 Q 233.301 6.401 235.851 11.101 A 21.137 21.137 0 0 1 238.26 19.06 A 26.256 26.256 0 0 1 238.401 21.801 Q 238.401 27.701 235.851 32.501 Q 233.301 37.301 228.901 40.101 A 18.015 18.015 0 0 1 219.172 42.9 A 21.506 21.506 0 0 1 219.001 42.901 L 198.701 42.901 L 199.401 41.701 L 199.401 66.901 Q 199.401 68.601 198.301 69.801 A 3.604 3.604 0 0 1 195.672 70.998 A 4.691 4.691 0 0 1 195.501 71.001 A 4.349 4.349 0 0 1 194.232 70.825 A 3.362 3.362 0 0 1 192.651 69.801 A 4.221 4.221 0 0 1 191.603 67.059 A 5.393 5.393 0 0 1 191.601 66.901 L 191.601 5.001 Q 191.601 3.301 192.751 2.151 A 3.861 3.861 0 0 1 195.548 1.001 A 4.988 4.988 0 0 1 195.601 1.001 Z M 365.101 36.001 Q 365.101 27.801 361.851 21.501 A 26.022 26.022 0 0 0 356.118 13.976 A 24.442 24.442 0 0 0 353.001 11.601 A 22.721 22.721 0 0 0 342.726 8.128 A 28.485 28.485 0 0 0 340.001 8.001 A 25.787 25.787 0 0 0 332.443 9.073 A 22.249 22.249 0 0 0 326.951 11.601 A 24.718 24.718 0 0 0 318.201 21.304 A 29.188 29.188 0 0 0 318.101 21.501 Q 314.901 27.801 314.901 36.001 A 35.083 35.083 0 0 0 315.804 44.113 A 28.782 28.782 0 0 0 318.101 50.451 A 25.393 25.393 0 0 0 323.812 58.021 A 24.014 24.014 0 0 0 326.951 60.401 A 23.061 23.061 0 0 0 337.508 63.894 A 28.694 28.694 0 0 0 340.001 64.001 A 25.734 25.734 0 0 0 347.355 62.985 A 21.917 21.917 0 0 0 353.001 60.401 A 24.92 24.92 0 0 0 361.328 51.426 A 29.76 29.76 0 0 0 361.851 50.451 A 29.571 29.571 0 0 0 364.843 40.418 A 37.019 37.019 0 0 0 365.101 36.001 Z M 642.401 36.001 Q 642.401 27.801 639.151 21.501 A 26.022 26.022 0 0 0 633.418 13.976 A 24.442 24.442 0 0 0 630.301 11.601 A 22.721 22.721 0 0 0 620.026 8.128 A 28.485 28.485 0 0 0 617.301 8.001 A 25.787 25.787 0 0 0 609.743 9.073 A 22.249 22.249 0 0 0 604.251 11.601 A 24.718 24.718 0 0 0 595.501 21.304 A 29.188 29.188 0 0 0 595.401 21.501 Q 592.201 27.801 592.201 36.001 A 35.083 35.083 0 0 0 593.104 44.113 A 28.782 28.782 0 0 0 595.401 50.451 A 25.393 25.393 0 0 0 601.112 58.021 A 24.014 24.014 0 0 0 604.251 60.401 A 23.061 23.061 0 0 0 614.808 63.894 A 28.694 28.694 0 0 0 617.301 64.001 A 25.734 25.734 0 0 0 624.655 62.985 A 21.917 21.917 0 0 0 630.301 60.401 A 24.92 24.92 0 0 0 638.628 51.426 A 29.76 29.76 0 0 0 639.151 50.451 A 29.571 29.571 0 0 0 642.143 40.418 A 37.019 37.019 0 0 0 642.401 36.001 Z M 269.001 66.901 L 269.001 5.101 L 277.501 5.101 L 277.501 66.901 A 3.946 3.946 0 0 1 276.338 69.763 A 4.757 4.757 0 0 1 276.301 69.801 A 4.048 4.048 0 0 1 273.791 70.97 A 5.525 5.525 0 0 1 273.201 71.001 A 4.436 4.436 0 0 1 271.621 70.728 A 3.986 3.986 0 0 1 270.201 69.801 Q 269.001 68.601 269.001 66.901 Z M 546.301 66.901 L 546.301 5.101 L 554.801 5.101 L 554.801 66.901 A 3.946 3.946 0 0 1 553.638 69.763 A 4.757 4.757 0 0 1 553.601 69.801 A 4.048 4.048 0 0 1 551.091 70.97 A 5.525 5.525 0 0 1 550.501 71.001 A 4.436 4.436 0 0 1 548.921 70.728 A 3.986 3.986 0 0 1 547.501 69.801 Q 546.301 68.601 546.301 66.901 Z M 77.101 37.201 L 75.901 35.401 L 100.401 35.401 A 10.449 10.449 0 0 0 105.369 33.724 A 12.557 12.557 0 0 0 105.851 33.401 A 12.45 12.45 0 0 0 108.81 30.414 A 16.165 16.165 0 0 0 110.051 28.351 Q 111.701 25.101 111.701 21.001 A 13.768 13.768 0 0 0 111.024 16.602 A 11.655 11.655 0 0 0 108.351 12.201 A 11.143 11.143 0 0 0 100.227 8.704 A 14.621 14.621 0 0 0 99.901 8.701 L 76.301 8.701 L 77.101 6.801 L 77.101 37.201 Z M 672.601 37.201 L 671.401 35.401 L 695.901 35.401 A 10.449 10.449 0 0 0 700.869 33.724 A 12.557 12.557 0 0 0 701.351 33.401 A 12.45 12.45 0 0 0 704.31 30.414 A 16.165 16.165 0 0 0 705.551 28.351 Q 707.201 25.101 707.201 21.001 A 13.768 13.768 0 0 0 706.524 16.602 A 11.655 11.655 0 0 0 703.851 12.201 A 11.143 11.143 0 0 0 695.727 8.704 A 14.621 14.621 0 0 0 695.401 8.701 L 671.801 8.701 L 672.601 6.801 L 672.601 37.201 Z M 296.501 8.601 L 250.001 8.601 A 4.539 4.539 0 0 1 248.539 8.374 A 3.885 3.885 0 0 1 247.151 7.551 Q 246.001 6.501 246.001 4.801 A 4.078 4.078 0 0 1 246.201 3.493 A 3.394 3.394 0 0 1 247.151 2.051 A 3.986 3.986 0 0 1 249.635 1.013 A 5.228 5.228 0 0 1 250.001 1.001 L 296.501 1.001 Q 298.201 1.001 299.401 2.051 A 3.435 3.435 0 0 1 300.595 4.565 A 4.63 4.63 0 0 1 300.601 4.801 A 4.33 4.33 0 0 1 300.446 5.991 A 3.185 3.185 0 0 1 299.401 7.601 A 4.298 4.298 0 0 1 296.866 8.589 A 5.516 5.516 0 0 1 296.501 8.601 Z M 573.801 8.601 L 527.301 8.601 A 4.539 4.539 0 0 1 525.839 8.374 A 3.885 3.885 0 0 1 524.451 7.551 Q 523.301 6.501 523.301 4.801 A 4.078 4.078 0 0 1 523.501 3.493 A 3.394 3.394 0 0 1 524.451 2.051 A 3.986 3.986 0 0 1 526.935 1.013 A 5.228 5.228 0 0 1 527.301 1.001 L 573.801 1.001 Q 575.501 1.001 576.701 2.051 A 3.435 3.435 0 0 1 577.895 4.565 A 4.63 4.63 0 0 1 577.901 4.801 A 4.33 4.33 0 0 1 577.746 5.991 A 3.185 3.185 0 0 1 576.701 7.601 A 4.298 4.298 0 0 1 574.166 8.589 A 5.516 5.516 0 0 1 573.801 8.601 Z M 198.701 35.201 L 219.001 35.201 A 10.228 10.228 0 0 0 222.549 34.599 A 9.347 9.347 0 0 0 224.801 33.401 A 12.209 12.209 0 0 0 228.069 29.839 A 15.094 15.094 0 0 0 228.801 28.501 Q 230.301 25.401 230.301 21.801 Q 230.301 18.001 228.801 15.101 A 13.051 13.051 0 0 0 226.162 11.558 A 12.122 12.122 0 0 0 224.801 10.451 A 9.711 9.711 0 0 0 219.637 8.717 A 12.023 12.023 0 0 0 219.001 8.701 L 198.701 8.701 L 199.401 7.601 L 199.401 36.201 L 198.701 35.201 Z M 509.701 52.301 L 475.101 52.301 L 478.501 44.501 L 508.201 44.501 L 509.701 52.301 Z" />
    </g>
</svg>