<?xml version="1.0" encoding="utf-8"?>
<!-- Generator: Adobe Illustrator 26.5.2, SVG Export Plug-In . SVG Version: 6.00 Build 0)  -->
<svg version="1.1" id="Ebene_1" xmlns="http://www.w3.org/2000/svg" xmlns:xlink="http://www.w3.org/1999/xlink" x="0px" y="0px"
	 viewBox="0 0 941.1 346.6" style="enable-background:new 0 0 941.1 346.6;" xml:space="preserve">
<style type="text/css">
	.st0{fill-rule:evenodd;clip-rule:evenodd;fill:#FFFFFF;}
	.st1{fill:#FFFFFF;}
</style>
<g id="Ebene_1-2">
	<path id="Ellipse-Copy-Difference-Union-2" className="st0" d="M163.8,19C78.6,19,9.5,88.1,9.5,173.3s69.1,154.3,154.3,154.3
		s154.3-69.1,154.3-154.3S249,19,163.8,19z M81.6,66.7h96.2c3.3-5.3,9.2-8.8,16-8.8c10.4,0,18.8,8.4,18.8,18.8s-8.4,18.8-18.8,18.8
		c-6.8,0-12.8-3.7-16.1-9.1H71.2v184c0,0.2,0,0.3,0,0.5c9.5,9,20.2,16.6,32,22.5v-80c0-0.2,0-0.3,0-0.5s0-0.3,0.1-0.5
		c0-0.2,0.1-0.3,0.1-0.5c0-0.2,0.1-0.3,0.1-0.5c0-0.2,0.1-0.3,0.1-0.5c0-0.2,0.1-0.3,0.2-0.5c0.1-0.2,0.1-0.3,0.2-0.4
		c0.1-0.2,0.1-0.3,0.2-0.4c0.1-0.1,0.2-0.3,0.2-0.4c0.1-0.2,0.2-0.3,0.2-0.4c0.1-0.1,0.2-0.3,0.2-0.4c0.1-0.1,0.2-0.2,0.3-0.4
		c0.1-0.1,0.2-0.2,0.3-0.4c0.1-0.1,0.2-0.2,0.3-0.4c0.1-0.1,0.2-0.2,0.3-0.3c0.1-0.1,0.2-0.2,0.3-0.3c0.1-0.1,0.2-0.2,0.4-0.3
		c0.1-0.1,0.2-0.2,0.4-0.3c0.1-0.1,0.2-0.2,0.4-0.3c0.1-0.1,0.3-0.2,0.4-0.2c0.1-0.1,0.3-0.2,0.4-0.2c0.2-0.1,0.3-0.2,0.4-0.2
		c0.2,0,0.3-0.1,0.4-0.2s0.3-0.1,0.4-0.2c0.2-0.1,0.3-0.1,0.5-0.2c0.2-0.1,0.3-0.1,0.5-0.1c0.2,0,0.3-0.1,0.5-0.1
		c0.2,0,0.3-0.1,0.5-0.1c0.2,0,0.3-0.1,0.5-0.1c0.2,0,0.3,0,0.5-0.1c0.2,0,0.3,0,0.5,0h33.3c3.3-5.3,9.2-8.8,16-8.8
		c10.4,0,18.8,8.4,18.8,18.8c0,10.4-8.4,18.8-18.8,18.8c-6.8,0-12.8-3.7-16.1-9.1h-23v76.4c0,0.4,0,0.9-0.1,1.3
		c13,4.1,26.8,6.3,41.1,6.3c12.8,0,25.2-1.8,36.9-5.1v-102c-5.3-3.3-8.8-9.2-8.8-15.9c0-10.4,8.4-18.8,18.8-18.8s18.8,8.4,18.8,18.8
		c0,6.9-3.7,12.9-9.2,16.2v94.3c9-4.2,17.6-9.4,25.4-15.4v-95.4c0-0.2,0-0.3,0-0.5c0-0.2,0-0.3,0.1-0.5c0-0.2,0.1-0.3,0.1-0.5
		c0-0.2,0.1-0.3,0.1-0.5c0-0.2,0.1-0.3,0.1-0.5c0.1-0.2,0.1-0.3,0.2-0.5c0.1-0.2,0.1-0.3,0.2-0.5c0.1-0.2,0.1-0.3,0.2-0.4
		c0.1-0.1,0.2-0.3,0.2-0.4c0.1-0.2,0.2-0.3,0.2-0.4s0.2-0.3,0.2-0.4c0.1-0.1,0.2-0.3,0.3-0.4s0.2-0.2,0.3-0.4
		c0.1-0.1,0.2-0.2,0.3-0.4c0.1-0.1,0.2-0.2,0.3-0.3c0.1-0.1,0.2-0.2,0.3-0.3c0.1-0.1,0.2-0.2,0.4-0.3c0.1-0.1,0.2-0.2,0.4-0.3
		c0.1-0.1,0.2-0.2,0.4-0.3c0.1-0.1,0.3-0.2,0.4-0.2c0.1-0.1,0.3-0.2,0.4-0.2c0.1-0.1,0.3-0.2,0.4-0.2c0.2-0.1,0.3-0.1,0.4-0.2
		c0.2-0.1,0.3-0.1,0.4-0.2c0.2-0.1,0.3-0.1,0.5-0.2c0.2-0.1,0.3-0.1,0.5-0.1c0.2,0,0.3-0.1,0.5-0.1c0.2,0,0.3-0.1,0.5-0.1
		c0.2,0,0.3,0,0.5-0.1c0.2,0,0.3,0,0.5,0c0.2,0,0.3,0,0.5,0h42.9v-1.9c0-33.7-12.4-64.5-32.8-88.1v42.4c0,0.2,0,0.3,0,0.5
		s0,0.3-0.1,0.5c0,0.2-0.1,0.3-0.1,0.5c0,0.2-0.1,0.3-0.1,0.5s-0.1,0.3-0.1,0.5c-0.1,0.2-0.1,0.3-0.2,0.5c-0.1,0.2-0.1,0.3-0.2,0.5
		c-0.1,0.2-0.1,0.3-0.2,0.4c-0.1,0.2-0.2,0.3-0.2,0.4s-0.2,0.3-0.2,0.4c-0.1,0.2-0.2,0.3-0.2,0.4c-0.1,0.1-0.2,0.3-0.3,0.4
		c-0.1,0.1-0.2,0.2-0.3,0.4c-0.1,0.1-0.2,0.2-0.3,0.4c-0.1,0.1-0.2,0.2-0.3,0.3c-0.1,0.1-0.2,0.2-0.3,0.3c-0.1,0.1-0.2,0.2-0.4,0.3
		c-0.1,0.1-0.2,0.2-0.4,0.3c-0.1,0.1-0.2,0.2-0.4,0.3c-0.1,0.1-0.3,0.2-0.4,0.2c-0.2,0.1-0.3,0.2-0.4,0.2c-0.2,0.1-0.3,0.2-0.4,0.2
		c-0.2,0.1-0.3,0.1-0.4,0.2c-0.2,0.1-0.3,0.1-0.5,0.2c-0.2,0.1-0.3,0.1-0.5,0.2c-0.2,0.1-0.3,0.1-0.5,0.1c-0.2,0-0.3,0.1-0.5,0.1
		c-0.2,0-0.3,0.1-0.5,0.1c-0.2,0-0.3,0-0.5,0.1c-0.2,0-0.3,0-0.5,0H122.9v20c5.5,3.3,9.2,9.3,9.2,16.2c0,10.4-8.4,18.8-18.8,18.8
		s-18.8-8.4-18.8-18.9c0-6.7,3.5-12.6,8.8-15.9v-30.6c0-0.2,0-0.3,0-0.5c0-0.2,0-0.3,0.1-0.5c0-0.2,0.1-0.3,0.1-0.5
		c0-0.2,0.1-0.3,0.1-0.5c0-0.2,0.1-0.3,0.1-0.5c0-0.2,0.1-0.3,0.2-0.5c0.1-0.2,0.1-0.3,0.2-0.4c0.1-0.2,0.1-0.3,0.2-0.4
		c0.1-0.1,0.2-0.3,0.2-0.4c0.1-0.2,0.2-0.3,0.2-0.4c0.1-0.2,0.2-0.3,0.2-0.4c0.1-0.1,0.2-0.3,0.3-0.4c0.1-0.1,0.2-0.2,0.3-0.4
		c0.1-0.1,0.2-0.2,0.3-0.4c0.1-0.1,0.2-0.2,0.3-0.3l0.3-0.3c0.1-0.1,0.2-0.2,0.4-0.3c0.1-0.1,0.2-0.2,0.4-0.3
		c0.1-0.1,0.2-0.2,0.4-0.3c0.1-0.1,0.3-0.2,0.4-0.2c0.1-0.1,0.3-0.2,0.4-0.2c0.2-0.1,0.3-0.2,0.4-0.2c0.2,0,0.3-0.1,0.4-0.2
		c0.2-0.1,0.3-0.1,0.4-0.2c0.2-0.1,0.3-0.1,0.5-0.2c0.2,0,0.3-0.1,0.5-0.1c0.2,0,0.3-0.1,0.5-0.1c0.2,0,0.3-0.1,0.5-0.1
		c0.2,0,0.3-0.1,0.5-0.1c0.2,0,0.3,0,0.5,0c0.2,0,0.3,0,0.5,0h133.1V67.6c0-0.3,0-0.6,0-0.9c-22.7-17.6-51.2-28.1-82.1-28.1
		S104.3,49.1,81.6,66.7L81.6,66.7L81.6,66.7z M29.2,173.3c0-27.4,8.2-53,22.3-74.2v148.5C37.4,226.2,29.2,200.7,29.2,173.3
		L29.2,173.3L29.2,173.3z M296.7,194.8h-31.2v66.6C281.5,243,292.6,220.1,296.7,194.8z"/>
</g>
<path className="st1" d="M369.2,259.3V75.6h121.6v32H408v43.8h74.7v32H408v75.9L369.2,259.3L369.2,259.3z"/>
<path className="st1" d="M535.4,103.8c-5.7,0-10.5-1.9-14.6-5.7c-4-3.8-6.1-8.4-6.1-13.7s2-9.8,6.1-13.6s8.9-5.7,14.6-5.7
	S546,67,550,70.8c4,3.8,6,8.3,6,13.6s-2,9.9-6,13.7C545.9,101.9,541.1,103.8,535.4,103.8z M516.2,259.3V121.5h38.2v137.8H516.2z"/>
<path className="st1" d="M623.1,75.6v183.7h-38.2V75.6H623.1z"/>
<path className="st1" d="M779.6,200.2v-10.5c0-11.7-1.7-22-4.9-30.7c-3.3-8.8-7.9-16-13.8-21.8c-5.9-5.8-12.8-10.2-20.6-13.1
	s-16.3-4.3-25.4-4.3c-13.5,0-25.3,3-35.3,9c-10,6-17.8,14.3-23.3,25c-5.5,10.7-8.2,23.1-8.2,37.3s2.8,27.1,8.2,37.7
	c5.5,10.6,13.3,18.8,23.5,24.6c10.2,5.8,22.4,8.7,36.5,8.7c11.4,0,21.4-1.8,30.1-5.2c8.7-3.5,15.8-8.4,21.3-14.7
	c5.5-6.3,9.2-13.7,11-22.2l-35.3-2.3c-1.3,3.5-3.2,6.4-5.7,8.8s-5.5,4.2-9.1,5.4c-3.5,1.2-7.4,1.8-11.7,1.8c-6.4,0-11.9-1.4-16.6-4
	s-8.3-6.5-10.8-11.5c-2.5-5-3.8-10.9-3.8-17.7v-0.1L779.6,200.2L779.6,200.2z M700.1,152.2c4.5-2.7,9.6-4,15.4-4s10.5,1.2,14.7,3.6
	c4.2,2.4,7.5,5.8,9.9,10c2.4,4.2,3.6,9.1,3.6,14.6h-57.8c0.2-4.9,1.5-9.5,3.8-13.6C692.2,158.5,695.7,154.9,700.1,152.2z"/>
<path className="st1" d="M842.8,179.6v79.7h-38.2V121.5H841v24.3h1.6c3-8,8.2-14.4,15.3-19.1c7.2-4.7,15.9-7,26.1-7
	c9.6,0,17.9,2.1,25,6.3c7.1,4.2,12.7,10.2,16.6,17.9c4,7.8,5.9,17,5.9,27.7v87.7h-38.2v-80.9c0.1-8.4-2.1-15-6.5-19.8
	c-4.4-4.8-10.4-7.1-18-7.1c-5.1,0-9.7,1.1-13.6,3.3c-3.9,2.2-7,5.4-9.2,9.6C843.9,168.7,842.8,173.7,842.8,179.6L842.8,179.6z"/>
</svg>
