<svg className="company-card-logo" xmlns="http://www.w3.org/2000/svg" width="160" height="31" viewBox="0 0 160 31" fill="none">
    <mask id="mask0_1215_1866" style="mask-type:luminance" maskUnits="userSpaceOnUse" x="0" y="0"
        width="160" height="31">
        <path d="M160 0H0V30.9794H160V0Z" fill="white"></path>
    </mask>
    <g mask="url(#mask0_1215_1866)">
        <path
            d="M68.1425 30.9793C66.1692 30.9793 64.4336 30.6753 62.9403 30.0693C61.4447 29.4633 60.2492 28.6245 59.3514 27.5509C58.4536 26.4794 57.9158 25.238 57.7358 23.8268H63.5225C63.7025 24.6446 64.187 25.3429 64.9803 25.9216C65.7714 26.5004 66.7958 26.7897 68.0514 26.7897C69.307 26.7897 70.227 26.5507 70.8092 26.0705C71.3914 25.5903 71.6847 25.0409 71.6847 24.4203C71.6847 23.5186 71.2647 22.9042 70.4292 22.5792C69.5914 22.2542 68.4247 21.9375 66.9314 21.6272C65.9736 21.4301 65.0025 21.1911 64.0158 20.908C63.0292 20.627 62.1247 20.2663 61.3025 19.8281C60.4803 19.3919 59.8158 18.8279 59.307 18.1359C58.7981 17.446 58.5447 16.5905 58.5447 15.5756C58.5447 13.7136 59.3292 12.1472 60.9003 10.8786C62.4692 9.60787 64.6736 8.97461 67.5158 8.97461C70.147 8.97461 72.2469 9.55335 73.8181 10.7108C75.3892 11.8683 76.3225 13.4619 76.6203 15.4938H71.1936C70.8647 13.9421 69.6225 13.1663 67.4714 13.1663C66.3958 13.1663 65.5647 13.3634 64.9825 13.7576C64.4003 14.1539 64.107 14.6467 64.107 15.2401C64.107 15.8335 64.5403 16.3556 65.4069 16.7205C66.2736 17.0875 67.4247 17.425 68.8603 17.7354C70.4158 18.0751 71.8425 18.4483 73.1447 18.8572C74.4447 19.2661 75.4847 19.8721 76.2625 20.6773C77.0381 21.4804 77.427 22.6316 77.427 24.1267C77.4558 25.4247 77.0981 26.5968 76.3514 27.639C75.6047 28.6832 74.5269 29.501 73.1225 30.0944C71.7158 30.6857 70.0581 30.9835 68.1447 30.9835"
            fill="#e7704b"></path>
        <path
            d="M120.62 13.3739C119.213 13.3739 117.973 13.7471 116.898 14.4957C115.822 15.2443 115.133 16.3787 114.833 17.9031H125.911C125.822 16.5213 125.282 15.4204 124.296 14.6026C123.309 13.7849 122.082 13.376 120.618 13.376M120.573 30.9814C118.331 30.9814 116.342 30.5306 114.609 29.6268C112.873 28.7252 111.513 27.4544 110.527 25.8189C109.54 24.1833 109.047 22.2919 109.047 20.1468C109.047 18.0017 109.533 16.0411 110.504 14.3489C111.476 12.6567 112.82 11.3378 114.54 10.3921C116.26 9.44641 118.284 8.97461 120.618 8.97461C122.8 8.97461 124.729 9.42544 126.404 10.3292C128.078 11.233 129.387 12.4659 130.329 14.0323C131.271 15.5987 131.742 17.3412 131.742 19.2598C131.742 19.5702 131.736 19.8952 131.72 20.2328C131.704 20.5704 131.682 20.9247 131.653 21.2917H114.744C114.864 22.9294 115.469 24.2127 116.56 25.1437C117.651 26.0747 118.973 26.5402 120.529 26.5402C121.696 26.5402 122.673 26.2928 123.467 25.8C124.26 25.3072 124.849 24.6656 125.238 23.8751H131.069C130.649 25.2024 129.953 26.4081 128.982 27.4943C128.011 28.5805 126.813 29.4339 125.393 30.0546C123.973 30.6753 122.367 30.9856 120.571 30.9856"
            fill="#e7704b"></path>
        <path
            d="M53.0734 9.48047H47.3334V20.3151C47.3334 22.2337 46.8178 23.7288 45.7867 24.8024C44.7556 25.8739 43.4467 26.4107 41.8623 26.4107C40.1867 26.4107 38.9623 25.9305 38.1845 24.9722C37.4067 24.014 37.0178 22.63 37.0178 20.8246V9.48257H31.3223V21.3321C31.3223 24.4921 32.0778 26.8909 33.5867 28.5265C35.0956 30.1641 37.2423 30.9819 40.0223 30.9819C40.8289 30.9819 41.5867 30.9001 42.3 30.7408C44.2712 30.248 46.0912 28.9731 47.4578 27.1677C47.1578 28.5957 46.6778 29.6672 46.16 30.4703L53.0756 30.4766V9.48047H53.0734Z"
            fill="#e7704b"></path>
        <path
            d="M152.576 24.4832C151.393 25.6533 149.876 26.2404 148.024 26.2404C146.173 26.2404 144.689 25.647 143.493 24.4622C142.298 23.2775 141.7 21.7677 141.7 19.933C141.7 18.0982 142.298 16.6031 143.493 15.4456C144.689 14.2903 146.2 13.7094 148.024 13.7094C149.849 13.7094 151.396 14.2945 152.576 15.4666C153.756 16.6367 154.347 18.1401 154.347 19.9728C154.347 21.8055 153.756 23.309 152.576 24.4811M154.258 0V12.359C153.48 11.2875 152.464 10.4551 151.209 9.86164C149.953 9.26822 148.487 8.97256 146.813 8.97256C144.72 8.97256 142.851 9.44436 141.207 10.3901C139.562 11.3358 138.262 12.6337 137.304 14.284C136.347 15.9342 135.869 17.8172 135.869 19.933C135.869 22.0487 136.347 23.9401 137.304 25.605C138.262 27.27 139.562 28.5826 141.207 29.5409C142.851 30.4992 144.72 30.9794 146.813 30.9794C148.698 30.9794 150.229 30.6271 151.411 29.9204C152.12 29.4969 152.744 29.0313 153.287 28.526V28.5868C153.751 28.159 154.189 27.6872 154.584 27.163C154.282 28.591 153.804 29.6625 153.287 30.4656V30.4845L160 30.4698V0H154.258Z"
            fill="#e7704b"></path>
        <path
            d="M20.4578 0.192418V13.2162L13.1422 13.1994C11.4978 13.1994 10.04 13.5307 8.76889 14.1933C7.49778 14.8559 6.48889 15.766 5.74222 16.9235V16.9151C5.44667 17.4036 5.19778 17.93 5.00667 18.4961C4.74889 16.3887 5.25555 15.0572 5.74222 14.2961V0.106445H0V30.6056H5.74222V23.8662C5.74222 21.9476 6.27333 20.4525 7.33555 19.381C8.39555 18.3095 9.73555 17.7727 11.3489 17.7727L20.46 17.7937V30.6601H26.1889V0.192418H20.46H20.4578Z"
            fill="#e7704b"></path>
        <path
            d="M102.338 11.428C100.826 9.79245 98.6975 8.97256 95.9464 8.97256C94.302 8.97256 92.8442 9.30387 91.5731 9.96649C90.4864 10.5347 89.5931 11.2833 88.8886 12.2102C88.4709 12.8162 88.1264 13.4934 87.8775 14.2315C87.6264 12.1829 88.0731 10.8451 88.5464 10.0336V0H82.8042V30.4719H88.5464V19.6373C88.5464 17.7187 89.0775 16.2236 90.1398 15.1521C91.1998 14.0806 92.5398 13.5438 94.1531 13.5438C95.7664 13.5438 97.002 14.024 97.7642 14.9822C98.5264 15.9426 98.9086 17.3245 98.9086 19.1299V30.4719H104.604V18.6224C104.604 15.4624 103.849 13.0636 102.34 11.428"
            fill="#e7704b"></path>
    </g>
</svg>