<?xml version="1.0" encoding="utf-8"?>
<svg xmlns="http://www.w3.org/2000/svg" viewBox="23.2458 24.4479 454.3072 48" width="454.307px" height="48px">
  <defs>
    <clipPath id="clip0_279_790">
      <rect width="48" height="48" rx="4.6875" fill="white"/>
    </clipPath>
    <linearGradient id="paint0_linear_279_790" x1="24" y1="-1.73437" x2="24" y2="48" gradientUnits="userSpaceOnUse">
      <stop stop-color="#205C9D"/>
      <stop offset="0.6555" stop-color="#05101B"/>
    </linearGradient>
    <radialGradient id="paint1_radial_279_790" cx="0" cy="0" r="1" gradientUnits="userSpaceOnUse" gradientTransform="translate(24 28.6406) rotate(-90) scale(23.1562 23.1322)">
      <stop stop-color="#88608C"/>
      <stop offset="0.6928" stop-color="#8F7664"/>
      <stop offset="1" stop-color="#907029"/>
    </radialGradient>
    <linearGradient id="paint2_linear_279_790" x1="48.1529" y1="13.9384" x2="7.30035" y2="34.281" gradientUnits="userSpaceOnUse">
      <stop stop-color="#D59C14"/>
      <stop offset="0.29" stop-color="#F8A912"/>
      <stop offset="1" stop-color="#FDDF00"/>
    </linearGradient>
    <linearGradient id="paint3_linear_279_790" x1="66.2514" y1="9.46489" x2="4.67472" y2="36.2494" gradientUnits="userSpaceOnUse">
      <stop stop-color="#D59C14"/>
      <stop offset="0.07" stop-color="#F8A912"/>
      <stop offset="1" stop-color="#FDDF00"/>
    </linearGradient>
  </defs>
  <g clip-path="url(#clip0_279_790)" transform="matrix(1, 0, 0, 1, 23.245784759521484, 24.4478816986084)">
    <path d="M0 0H48V48H0V0Z" fill="url(#paint0_linear_279_790)"/>
    <path d="M14.25 6.32812H7.125V41.4844H14.25V23.1094L19.125 32.3906H28.875L33.75 23.1094V41.4844H40.875V6.32812H33.75L24 24.7969L14.25 6.32812Z" fill="url(#paint1_radial_279_790)"/>
    <path d="M14.25 10.0781H7.125V41.4844H14.25V23.1094L19.125 32.3906H28.875L33.75 23.1094V41.4844H40.875V10.0781H33.75L24 28.5469L14.25 10.0781Z" fill="url(#paint2_linear_279_790)"/>
    <path d="M14.25 13.3594H7.125V41.4844H14.25V23.1094L19.125 32.3906H28.875L33.75 23.1094V41.4844H40.875V13.3594H33.75L24 31.7344L14.25 13.3594Z" fill="url(#paint3_linear_279_790)"/>
  </g>
  <path d="M 77.687 33.447 C 77.687 33.177 77.867 32.996 78.137 32.996 L 83.486 32.996 C 83.847 32.996 84.087 33.117 84.207 33.447 L 91.959 50.935 L 92.14 50.935 L 99.742 33.447 C 99.862 33.147 100.103 32.996 100.463 32.996 L 105.722 32.996 C 105.992 32.996 106.172 33.177 106.172 33.447 L 106.172 63.195 C 106.172 63.465 105.992 63.646 105.722 63.646 L 100.613 63.646 C 100.343 63.646 100.163 63.465 100.163 63.195 L 100.163 45.947 L 99.982 45.947 L 94.303 58.868 C 94.123 59.289 93.852 59.469 93.462 59.469 L 90.367 59.469 C 89.976 59.469 89.706 59.289 89.526 58.868 L 83.847 45.947 L 83.666 45.947 L 83.666 63.195 C 83.666 63.465 83.486 63.646 83.215 63.646 L 78.137 63.646 C 77.867 63.646 77.687 63.465 77.687 63.195 L 77.687 33.447 Z" fill="context-fill black"/>
  <path d="M 112.843 52.378 L 112.843 33.447 C 112.843 33.177 113.023 32.996 113.294 32.996 L 119.003 32.996 C 119.273 32.996 119.454 33.177 119.454 33.447 L 119.454 52.558 C 119.454 56.194 121.497 58.267 124.592 58.267 C 127.657 58.267 129.67 56.194 129.67 52.558 L 129.67 33.447 C 129.67 33.177 129.85 32.996 130.121 32.996 L 135.83 32.996 C 136.1 32.996 136.281 33.177 136.281 33.447 L 136.281 52.378 C 136.281 59.98 131.413 64.126 124.562 64.126 C 117.711 64.126 112.843 59.98 112.843 52.378 Z" fill="context-fill black"/>
  <path d="M 142.951 33.447 C 142.951 33.177 143.131 32.996 143.402 32.996 L 149.111 32.996 C 149.382 32.996 149.562 33.177 149.562 33.447 L 149.562 57.456 C 149.562 57.636 149.652 57.726 149.832 57.726 L 163.354 57.726 C 163.625 57.726 163.805 57.906 163.805 58.177 L 163.805 63.165 C 163.805 63.435 163.625 63.616 163.354 63.616 L 143.402 63.616 C 143.131 63.616 142.951 63.435 142.951 63.165 L 142.951 33.447 Z" fill="context-fill black"/>
  <path d="M 168.643 33.447 C 168.643 33.177 168.823 32.996 169.093 32.996 L 174.803 32.996 C 175.073 32.996 175.253 33.177 175.253 33.447 L 175.253 57.456 C 175.253 57.636 175.343 57.726 175.524 57.726 L 189.046 57.726 C 189.316 57.726 189.497 57.906 189.497 58.177 L 189.497 63.165 C 189.497 63.435 189.316 63.616 189.046 63.616 L 169.093 63.616 C 168.823 63.616 168.643 63.435 168.643 63.165 L 168.643 33.447 Z" fill="context-fill black"/>
  <path d="M 198.962 63.616 C 198.661 63.616 198.481 63.435 198.391 63.165 L 188.655 33.477 C 188.565 33.147 188.745 32.996 189.046 32.996 L 194.905 32.996 C 195.206 32.996 195.416 33.117 195.506 33.447 L 201.636 53.549 L 201.756 53.549 L 207.706 33.447 C 207.796 33.147 207.976 32.996 208.277 32.996 L 214.076 32.996 C 214.346 32.996 214.527 33.177 214.437 33.477 L 204.701 63.165 C 204.611 63.435 204.431 63.616 204.16 63.616 L 198.962 63.616 Z" fill="context-fill black"/>
  <path d="M 225.254 33.447 C 225.344 33.177 225.524 32.996 225.855 32.996 L 231.534 32.996 C 231.835 32.996 232.015 33.177 232.105 33.447 L 242.472 63.195 C 242.562 63.465 242.472 63.646 242.171 63.646 L 236.312 63.646 C 236.011 63.646 235.801 63.496 235.711 63.195 L 233.968 57.846 L 223.241 57.846 L 221.528 63.195 C 221.438 63.496 221.258 63.646 220.927 63.646 L 215.038 63.646 C 214.737 63.646 214.647 63.465 214.737 63.195 L 225.254 33.447 Z M 232.135 52.197 L 228.679 41.47 L 228.559 41.47 L 225.104 52.197 L 232.135 52.197 Z" fill="context-fill black"/>
  <path d="M 246.919 33.447 C 246.919 33.177 247.099 32.996 247.369 32.996 L 258.758 32.996 C 264.106 32.996 267.862 35.28 269.335 39.877 C 269.876 41.59 270.146 43.303 270.146 48.291 C 270.146 53.279 269.876 54.992 269.335 56.704 C 267.862 61.302 264.106 63.586 258.758 63.586 L 247.369 63.586 C 247.099 63.586 246.919 63.405 246.919 63.135 L 246.919 33.447 Z M 253.83 57.726 L 257.285 57.726 C 260.35 57.726 262.183 56.825 262.964 54.361 C 263.265 53.459 263.475 52.287 263.475 48.321 C 263.475 44.355 263.295 43.183 262.964 42.282 C 262.213 39.817 260.35 38.916 257.285 38.916 L 253.83 38.916 C 253.65 38.916 253.559 39.006 253.559 39.186 L 253.559 57.486 C 253.559 57.636 253.65 57.726 253.83 57.726 Z" fill="context-fill black"/>
  <path d="M 286.146 64.097 L 286.146 33.555 L 295.225 33.555 C 297.273 33.555 299.089 33.803 300.671 34.3 C 302.254 34.797 303.48 35.604 304.349 36.721 C 305.251 37.807 305.7 39.235 305.7 41.004 C 305.7 42.587 305.313 43.984 304.536 45.195 C 303.792 46.374 302.69 47.197 301.231 47.662 L 301.231 47.848 C 303.156 48.19 304.677 48.966 305.792 50.176 C 306.91 51.356 307.471 52.97 307.471 55.018 C 307.471 57.067 306.972 58.758 305.979 60.093 C 305.018 61.428 303.667 62.436 301.93 63.119 C 300.192 63.771 298.173 64.097 295.877 64.097 L 286.146 64.097 Z M 290.01 46.545 L 294.526 46.545 C 297.134 46.545 299.011 46.095 300.159 45.195 C 301.307 44.295 301.884 43.068 301.884 41.516 C 301.884 39.716 301.277 38.459 300.067 37.745 C 298.856 37 297.071 36.628 294.713 36.628 L 290.01 36.628 L 290.01 46.545 Z M 290.01 61.024 L 295.318 61.024 C 297.956 61.024 300.005 60.543 301.464 59.581 C 302.923 58.588 303.651 57.067 303.651 55.018 C 303.651 53.125 302.936 51.744 301.51 50.875 C 300.084 49.975 298.018 49.524 295.318 49.524 L 290.01 49.524 L 290.01 61.024 Z" fill="context-fill black"/>
  <path d="M 313.517 64.097 L 313.517 33.555 L 323.061 33.555 C 325.139 33.555 326.989 33.834 328.602 34.393 C 330.215 34.921 331.471 35.821 332.372 37.093 C 333.303 38.335 333.769 40.011 333.769 42.122 C 333.769 44.17 333.303 45.862 332.372 47.197 C 331.471 48.531 330.215 49.54 328.602 50.223 C 326.989 50.875 325.139 51.2 323.061 51.2 L 317.382 51.2 L 317.382 64.097 L 313.517 64.097 Z M 317.382 48.035 L 322.503 48.035 C 324.894 48.035 326.723 47.554 327.995 46.591 C 329.267 45.598 329.903 44.108 329.903 42.122 C 329.903 40.135 329.267 38.738 327.995 37.932 C 326.723 37.093 324.894 36.674 322.503 36.674 L 317.382 36.674 L 317.382 48.035 Z M 330.277 64.097 L 322.317 50.13 L 325.343 48.081 L 334.654 64.097 L 330.277 64.097 Z" fill="context-fill black"/>
  <path d="M 351.29 64.656 C 348.746 64.656 346.48 64.004 344.494 62.7 C 342.536 61.397 341.002 59.55 339.884 57.16 C 338.799 54.77 338.254 51.945 338.254 48.686 C 338.254 45.427 338.799 42.634 339.884 40.306 C 341.002 37.947 342.536 36.147 344.494 34.905 C 346.48 33.633 348.746 32.996 351.29 32.996 C 353.867 32.996 356.133 33.633 358.087 34.905 C 360.044 36.147 361.579 37.947 362.697 40.306 C 363.815 42.634 364.372 45.427 364.372 48.686 C 364.372 51.945 363.815 54.77 362.697 57.16 C 361.579 59.55 360.044 61.397 358.087 62.7 C 356.133 64.004 353.867 64.656 351.29 64.656 Z M 351.29 61.21 C 353.123 61.21 354.703 60.698 356.038 59.674 C 357.405 58.65 358.461 57.206 359.205 55.344 C 359.949 53.451 360.323 51.232 360.323 48.686 C 360.323 46.172 359.949 43.999 359.205 42.168 C 358.461 40.337 357.405 38.925 356.038 37.931 C 354.703 36.907 353.123 36.395 351.29 36.395 C 349.49 36.395 347.907 36.907 346.543 37.931 C 345.176 38.925 344.12 40.337 343.376 42.168 C 342.631 43.999 342.258 46.172 342.258 48.686 C 342.258 51.232 342.631 53.451 343.376 55.344 C 344.12 57.206 345.176 58.65 346.543 59.674 C 347.907 60.698 349.49 61.21 351.29 61.21 Z" fill="context-fill black"/>
  <path d="M 373.88 64.097 L 367.549 33.555 L 371.69 33.555 L 374.812 50.176 C 375.123 51.821 375.415 53.466 375.697 55.111 C 375.976 56.756 376.238 58.448 376.487 60.186 L 376.674 60.186 C 376.985 58.448 377.31 56.756 377.651 55.111 C 378.025 53.466 378.395 51.821 378.769 50.176 L 382.913 33.555 L 386.821 33.555 L 390.828 50.176 C 391.199 51.79 391.572 53.435 391.943 55.111 C 392.317 56.756 392.674 58.448 393.015 60.186 L 393.202 60.186 C 393.451 58.448 393.713 56.756 393.992 55.111 C 394.271 53.466 394.553 51.821 394.831 50.176 L 398.044 33.555 L 402.002 33.555 L 395.621 64.097 L 390.641 64.097 L 386.264 45.753 C 386.015 44.605 385.769 43.457 385.52 42.308 C 385.303 41.128 385.084 39.887 384.867 38.583 L 384.68 38.583 C 384.494 39.887 384.277 41.128 384.028 42.308 C 383.812 43.457 383.579 44.605 383.33 45.753 L 378.861 64.097 L 373.88 64.097 Z" fill="context-fill black"/>
  <path d="M 415.467 64.656 C 413.297 64.656 411.31 64.252 409.51 63.445 C 407.71 62.607 406.126 61.49 404.759 60.093 L 406.949 57.579 C 408.035 58.727 409.323 59.627 410.812 60.279 C 412.333 60.931 413.9 61.257 415.516 61.257 C 417.533 61.257 419.1 60.807 420.218 59.907 C 421.336 58.976 421.894 57.765 421.894 56.275 C 421.894 55.22 421.661 54.382 421.195 53.761 C 420.759 53.14 420.156 52.613 419.379 52.178 C 418.635 51.744 417.782 51.309 416.818 50.875 L 412.441 48.966 C 411.448 48.531 410.471 47.988 409.51 47.336 C 408.579 46.684 407.802 45.862 407.182 44.869 C 406.559 43.844 406.251 42.587 406.251 41.097 C 406.251 39.545 406.654 38.164 407.461 36.954 C 408.3 35.712 409.431 34.75 410.861 34.067 C 412.317 33.353 413.979 32.996 415.841 32.996 C 417.703 32.996 419.412 33.338 420.962 34.021 C 422.513 34.704 423.818 35.588 424.874 36.674 L 422.779 39.189 C 421.815 38.35 420.759 37.683 419.612 37.187 C 418.464 36.659 417.205 36.395 415.841 36.395 C 414.133 36.395 412.753 36.799 411.697 37.606 C 410.674 38.413 410.162 39.499 410.162 40.865 C 410.162 41.827 410.408 42.619 410.907 43.239 C 411.402 43.86 412.038 44.372 412.815 44.776 C 413.621 45.179 414.428 45.567 415.235 45.939 L 419.566 47.802 C 420.776 48.329 421.848 48.935 422.779 49.617 C 423.739 50.3 424.484 51.154 425.012 52.178 C 425.572 53.202 425.851 54.459 425.851 55.949 C 425.851 57.563 425.431 59.037 424.595 60.372 C 423.785 61.676 422.592 62.716 421.008 63.492 C 419.457 64.268 417.612 64.656 415.467 64.656 Z" fill="context-fill black"/>
  <path d="M 431.864 64.097 L 431.864 33.555 L 449.464 33.555 L 449.464 36.814 L 435.73 36.814 L 435.73 46.405 L 447.323 46.405 L 447.323 49.711 L 435.73 49.711 L 435.73 60.791 L 449.93 60.791 L 449.93 64.097 L 431.864 64.097 Z" fill="context-fill black"/>
  <path d="M 456.418 64.097 L 456.418 33.555 L 465.962 33.555 C 468.041 33.555 469.887 33.834 471.5 34.393 C 473.117 34.921 474.372 35.821 475.274 37.093 C 476.205 38.335 476.671 40.011 476.671 42.122 C 476.671 44.17 476.205 45.862 475.274 47.197 C 474.372 48.531 473.117 49.54 471.5 50.223 C 469.887 50.875 468.041 51.2 465.962 51.2 L 460.281 51.2 L 460.281 64.097 L 456.418 64.097 Z M 460.281 48.035 L 465.402 48.035 C 467.792 48.035 469.625 47.554 470.897 46.591 C 472.169 45.598 472.805 44.108 472.805 42.122 C 472.805 40.135 472.169 38.738 470.897 37.932 C 469.625 37.093 467.792 36.674 465.402 36.674 L 460.281 36.674 L 460.281 48.035 Z M 473.179 64.097 L 465.215 50.13 L 468.241 48.081 L 477.553 64.097 L 473.179 64.097 Z" fill="context-fill black"/>
</svg>