<?xml version="1.0" encoding="utf-8"?>
<svg className="company-card-logo" xmlns="http://www.w3.org/2000/svg" viewBox="-386.4302 -298.087 942.8412 252" width="960px"
    height="252px">
    <g id="mole" transform="matrix(1, 0, 0, 1, -460.43017578125, -372.08700561523443)">
        <path id="bg" class="background"
            d="M74,200c0,69.6,56.5,126,126,126 s126-56.4,126-126S269.6,74,200,74S74,130.4,74,200L74,200L74,200L74,200z"
            style="clip-rule: evenodd; fill: rgb(25, 46, 69); fill-rule: evenodd;" />
        <g id="body">
            <path id="fur" class="fur"
                d="M97.9,170.6L90.8,185l9.6-13.4 c0,0.1-0.6,19.3-0.6,19.3l2.7-14.5c7.2,13.7,23.1,34.8,45.4,50.5c1.7,1.2,3.9,3.3,4.6,4.1c0,0,21.3,10.8,54.1-14.2 c0.3-0.2,0.7-0.4,1-0.6l0.5,0.3l7.2,4.8c-2.5-0.7-7.3-1.9-7.3-1.9c-15.8,18.2-41.5,21.2-55.3,12c-0.6-0.4-4,1-4.6,3 c-0.4,1.1,0,2.3,0.5,3.2c2.8,5.2,7,4.7,5,10.8c-1.4,3.3-3.4,6.5-5.6,9.5c-4.6,6.2-11.8,11.7-11.1,15 c32.6,40.2,106.1,34.6,134.1-1.3c-0.4-5.2-8.6-7.7-14.3-20.4c1.6,0.5,4,1.2,4,1.1c0-0.1-6.8-11.1-7.1-12.2l4.4,0.3 c0,0-5.8-7.2-6-7.9l5.9-0.8c0,0-7.4-8.5-7.5-9.2l7.5,1.2l-8.2-9.9h3.9l-4.6-6.7l-37.3-14.7c-14.3-8.9-27-19.8-36.6-28.2l-19.3-9.4 c-18.5-1.4-35.8-0.9-46.4,1.2l6.8-11.6l-9.9,11.8c-0.6-0.2-1.3-0.4-1.3-0.4l0.7-15l-3.3,14L97.9,170.6z"
                style="clip-rule: evenodd; fill: rgb(210, 148, 59); fill-rule: evenodd;" />
            <path id="nose" class="nose"
                d="M102.4,154.8c-4.9-2.3-10.6,1-11.6,5.5 c-1.2,4.3,1.8,9.6,7.1,10.3C102.9,167.5,107.2,159.5,102.4,154.8z"
                style="clip-rule: evenodd; fill: rgb(255, 205, 134); fill-rule: evenodd;" />
        </g>
        <g id="helmet">
            <path id="helmet" class="helmet"
                d="M175.2,143.9c-1.5-4.1-1.1-9.4,1-14.4 c3-6.9,8.7-11.5,14.1-11.5c1.1,0,2.1,0.2,3.1,0.6c3.1-2.8,6.7-5.1,10.7-6.7c22-8.8,54.3,6.9,62.6,28.5c4,10.5,2.8,21.9-0.6,32.4 c-2.8,8.6-13,21-9.2,30.3c-1.5-0.4-32.8-11-41.8-15.8c-14.1-8.8-26.7-19.6-36.2-27.9l-0.3-0.3l-32-15.2c-0.4-0.2-0.8-0.4-1.1-0.6 C149.9,143.5,167.4,145.6,175.2,143.9"
                style="clip-rule: evenodd; fill: rgb(255, 213, 36); fill-rule: evenodd;" />
            <g id="lamp">
                <ellipse id="lamp-light"
                    transform="matrix(0.4007 -0.9162 0.9162 0.4007 -10.6017 252.6081)"
                    class="lamp-light" cx="187.8" cy="134.4" rx="13.6" ry="8.1"
                    style="fill: rgb(255, 255, 255);" />
                <path id="lamp-ring" class="lamp-ring"
                    d="M194.1,120.1 c-5.3-2.3-12.4,2.2-15.9,10.1s-1.9,16.1,3.4,18.5c5.3,2.3,12.4-2.2,15.9-10.1C201,130.7,199.4,122.5,194.1,120.1z M194.6,137.4 c-2.8,6.3-8.1,10.1-11.8,8.5c-3.8-1.7-4.6-8.1-1.8-14.5c2.8-6.3,8.1-10.1,11.9-8.5C196.6,124.6,197.4,131.1,194.6,137.4z"
                    style="fill: rgb(25, 46, 69);" />
            </g>
        </g>
    </g>
    <g id="text" transform="matrix(1, 0, 0, 1, -476.8990173339844, -121.82320404052746)">
        <path class="text"
            d="M 392.414 -115.82 C 392.414 -116.72 393.014 -117.32 393.914 -117.32 L 411.714 -117.32 C 412.914 -117.32 413.714 -116.92 414.114 -115.82 L 439.914 -57.521 L 440.514 -57.521 L 465.814 -115.82 C 466.214 -116.82 467.014 -117.32 468.214 -117.32 L 485.714 -117.32 C 486.614 -117.32 487.214 -116.72 487.214 -115.82 L 487.214 -16.621 C 487.214 -15.721 486.614 -15.121 485.714 -15.121 L 468.714 -15.121 C 467.814 -15.121 467.214 -15.721 467.214 -16.621 L 467.214 -74.121 L 466.614 -74.121 L 447.714 -31.021 C 447.114 -29.621 446.214 -29.021 444.914 -29.021 L 434.614 -29.021 C 433.314 -29.021 432.414 -29.621 431.814 -31.021 L 412.914 -74.121 L 412.314 -74.121 L 412.314 -16.621 C 412.314 -15.721 411.714 -15.121 410.814 -15.121 L 393.914 -15.121 C 393.014 -15.121 392.414 -15.721 392.414 -16.621 L 392.414 -115.82 Z"
            style="fill: rgb(255, 255, 255);" />
        <path class="text"
            d="M 509.514 -52.721 L 509.514 -115.82 C 509.514 -116.72 510.114 -117.32 511.014 -117.32 L 530.014 -117.32 C 530.914 -117.32 531.514 -116.72 531.514 -115.82 L 531.514 -52.121 C 531.514 -40.021 538.314 -33.121 548.614 -33.121 C 558.814 -33.121 565.514 -40.021 565.514 -52.121 L 565.514 -115.82 C 565.514 -116.72 566.114 -117.32 567.014 -117.32 L 586.014 -117.32 C 586.914 -117.32 587.514 -116.72 587.514 -115.82 L 587.514 -52.721 C 587.514 -27.421 571.314 -13.521 548.514 -13.521 C 525.714 -13.521 509.514 -27.321 509.514 -52.721 Z"
            style="fill: rgb(255, 255, 255);" />
        <path class="text"
            d="M 609.714 -115.82 C 609.714 -116.72 610.314 -117.32 611.214 -117.32 L 630.214 -117.32 C 631.114 -117.32 631.714 -116.72 631.714 -115.82 L 631.714 -35.721 C 631.714 -35.121 632.014 -34.821 632.614 -34.821 L 677.614 -34.821 C 678.514 -34.821 679.114 -34.221 679.114 -33.321 L 679.114 -16.721 C 679.114 -15.821 678.514 -15.221 677.614 -15.221 L 611.214 -15.221 C 610.314 -15.221 609.714 -15.821 609.714 -16.721 L 609.714 -115.82 Z"
            style="fill: rgb(255, 255, 255);" />
        <path class="text"
            d="M 695.314 -115.82 C 695.314 -116.72 695.914 -117.32 696.814 -117.32 L 715.814 -117.32 C 716.714 -117.32 717.314 -116.72 717.314 -115.82 L 717.314 -35.721 C 717.314 -35.121 717.614 -34.821 718.214 -34.821 L 763.214 -34.821 C 764.114 -34.821 764.714 -34.221 764.714 -33.321 L 764.714 -16.721 C 764.714 -15.821 764.114 -15.221 763.214 -15.221 L 696.814 -15.221 C 695.914 -15.221 695.314 -15.821 695.314 -16.721 L 695.314 -115.82 Z"
            style="fill: rgb(255, 255, 255);" />
        <path class="text"
            d="M 796.314 -15.321 C 795.314 -15.321 794.714 -15.921 794.414 -16.821 L 762.014 -115.82 C 761.714 -116.92 762.314 -117.42 763.314 -117.42 L 782.814 -117.42 C 783.814 -117.42 784.514 -117.02 784.814 -115.92 L 805.214 -48.921 L 805.614 -48.921 L 825.414 -115.92 C 825.714 -116.92 826.314 -117.42 827.314 -117.42 L 846.614 -117.42 C 847.514 -117.42 848.114 -116.82 847.814 -115.82 L 815.414 -16.821 C 815.114 -15.921 814.514 -15.321 813.614 -15.321 L 796.314 -15.321 Z"
            style="fill: rgb(255, 255, 255);" />
        <path class="text"
            d="M 883.814 -115.82 C 884.114 -116.72 884.714 -117.32 885.814 -117.32 L 904.714 -117.32 C 905.714 -117.32 906.314 -116.72 906.614 -115.82 L 941.114 -16.621 C 941.414 -15.721 941.114 -15.121 940.114 -15.121 L 920.614 -15.121 C 919.614 -15.121 918.914 -15.621 918.614 -16.621 L 912.814 -34.421 L 877.114 -34.421 L 871.414 -16.621 C 871.114 -15.621 870.514 -15.121 869.414 -15.121 L 849.814 -15.121 C 848.814 -15.121 848.514 -15.721 848.814 -16.621 L 883.814 -115.82 Z M 906.814 -53.421 L 895.314 -89.321 L 894.914 -89.321 L 883.414 -53.521 L 906.814 -53.421 Z"
            style="fill: rgb(255, 255, 255);" />
        <path class="text"
            d="M 956.014 -115.82 C 956.014 -116.72 956.614 -117.32 957.514 -117.32 L 995.414 -117.32 C 1013.21 -117.32 1025.71 -109.72 1030.61 -94.421 C 1032.41 -88.721 1033.31 -83.021 1033.31 -66.321 C 1033.31 -49.621 1032.41 -44.021 1030.61 -38.221 C 1025.71 -22.921 1013.21 -15.321 995.414 -15.321 L 957.514 -15.321 C 956.614 -15.321 956.014 -15.921 956.014 -16.821 L 956.014 -115.82 Z M 978.914 -34.821 L 990.414 -34.821 C 1000.61 -34.821 1006.71 -37.821 1009.31 -46.021 C 1010.31 -49.021 1011.01 -52.921 1011.01 -66.121 C 1011.01 -79.321 1010.41 -83.221 1009.31 -86.221 C 1006.81 -94.421 1000.61 -97.421 990.414 -97.421 L 978.914 -97.421 C 978.314 -97.421 978.014 -97.121 978.014 -96.521 L 978.014 -35.521 C 978.014 -35.321 978.314 -34.821 978.914 -34.821 Z"
            style="fill: rgb(255, 255, 255);" />
    </g>
</svg>