<?xml version="1.0" encoding="utf-8"?>
<svg className="company-card-logo" xmlns="http://www.w3.org/2000/svg" viewBox="133.3063 73.78 151.1212 31" width="151.121px"
    height="31px">
    <text
        style="fill: white; font-family: Arial, sans-serif; font-size: 28px; font-weight: 700; white-space: pre;"
        x="164.615" y="98.78" transform="matrix(1, 0, 0, 1, 0, -1.7763568394002505e-15)">NextDNS</text>
    <path
        d="M 138.482 93.371 C 136.736 90.74 135.657 87.709 135.503 84.609 C 135.456 83.872 135.456 83.132 135.51 82.394 C 138.072 81.916 140.511 80.998 142.79 79.827 C 143.667 79.367 144.522 78.889 145.324 78.326 C 147.178 79.581 149.221 80.593 151.366 81.351 C 147.063 85.347 142.79 89.374 138.482 93.371 Z M 153.212 81.931 C 148.647 86.208 144.072 90.463 139.507 94.74 C 141.085 96.668 142.992 98.377 145.197 99.674 C 148.547 97.642 151.345 94.79 153.077 91.421 C 154.534 88.612 155.154 85.446 154.958 82.332 C 154.372 82.215 153.784 82.09 153.212 81.931 Z M 157.135 83.606 C 156.987 87.081 155.961 90.532 154.116 93.56 C 152.228 96.663 149.565 99.346 146.416 101.37 C 146.268 101.472 146.106 101.559 145.959 101.645 C 145.851 101.703 145.743 101.765 145.641 101.833 L 145.331 102.015 C 145.21 102.088 145.115 102.015 145.115 102.015 C 142.582 100.554 140.363 98.637 138.509 96.465 C 135.975 93.476 134.234 89.896 133.602 86.125 C 133.325 84.526 133.251 82.901 133.345 81.283 C 133.338 81.042 133.548 80.829 133.798 80.806 C 136.668 80.26 139.426 79.241 142.001 77.928 C 143.107 77.348 144.205 76.746 145.203 76.016 C 145.203 76.016 145.358 75.886 145.507 76.012 C 145.803 76.264 146.154 76.462 146.484 76.673 C 149.39 78.459 152.612 79.84 156.009 80.588 C 156.293 80.661 156.596 80.674 156.872 80.785 C 157.109 80.908 157.123 81.158 157.128 81.384 L 157.157 81.713 L 157.157 81.708 C 157.203 82.336 157.203 82.979 157.135 83.606 Z M 156.131 81.562 C 152.255 80.777 148.588 79.188 145.338 77.078 C 144.536 77.633 143.667 78.113 142.803 78.575 C 140.153 79.957 137.317 81.047 134.343 81.646 C 134.101 85.923 135.34 90.256 137.801 93.868 C 139.709 96.688 142.258 99.124 145.224 100.979 C 149.073 98.643 152.228 95.296 154.129 91.396 C 155.632 88.331 156.299 84.922 156.131 81.562 Z"
        style="fill: #0055ff;" transform="matrix(1, 0, 0, 1, 0, -1.7763568394002505e-15)" />
</svg>