<svg className="company-card-logo" width="104" height="24" viewBox="0 0 104 24" fill="none" xmlns="http://www.w3.org/2000/svg">
    <g clip-path="url(#clip0)">
        <path fill-rule="evenodd" clip-rule="evenodd"
            d="M0.470098 20.8413C0.722263 20.4794 1.13653 20.2442 1.6949 20.1538C17.4372 17.5667 33.3956 17.5486 49.1379 20.0814C49.5702 20.1538 49.8404 20.2804 49.9845 20.4252C50.1106 20.5518 50.1646 20.7146 50.1286 20.9498C50.0925 21.1488 50.0025 21.2755 49.8584 21.3478C49.6783 21.4383 49.3901 21.4745 48.9578 21.4202C33.3596 19.5206 17.6533 20.1357 2.27128 23.2655C2.12718 23.2836 1.98309 23.3017 1.85701 23.3017H1.73092C1.35268 23.2836 1.0825 23.157 0.920393 23.0484C0.560157 22.8132 0.326004 22.4333 0.235945 21.9991C0.18191 21.5649 0.253957 21.1488 0.470098 20.8413Z"
            fill="#6573FF" />
        <path
            d="M11.4375 8.53912C10.9692 8.1773 10.3748 7.85165 9.6363 7.56219C8.91583 7.27273 8.05126 7.03754 7.06062 6.82044C6.21406 6.62144 5.54763 6.44052 5.06131 6.24152C4.57499 6.06061 4.23277 5.84351 4.01663 5.60832C3.80048 5.37313 3.71043 5.08367 3.71043 4.73994C3.71043 4.10674 3.9806 3.61827 4.52096 3.25644C5.06131 2.89462 5.78178 2.7137 6.68237 2.7137C7.4929 2.7137 8.2674 2.84034 9.04191 3.11171C9.81642 3.38308 10.5549 3.79919 11.2754 4.34193L12.3921 1.82723C11.9778 1.44731 11.4555 1.10357 10.8611 0.850294C10.2487 0.578924 9.58226 0.379919 8.86179 0.217096C8.14132 0.0723654 7.40284 0 6.64635 0C5.38552 0 4.2868 0.217096 3.33218 0.651289C2.39557 1.08548 1.65708 1.6825 1.11673 2.42424C0.594388 3.18408 0.324212 4.01628 0.324212 4.95703C0.324212 5.60832 0.432283 6.18725 0.630412 6.6938C0.846553 7.20036 1.17077 7.63455 1.62106 7.99638C2.07135 8.3763 2.66574 8.70194 3.38621 8.97332C4.10668 9.26278 4.98926 9.49796 6.01593 9.71506C6.82646 9.89598 7.4929 10.0769 7.97922 10.2578C8.46553 10.4387 8.82577 10.6377 9.04191 10.891C9.25805 11.1262 9.38413 11.4156 9.38413 11.7594C9.38413 12.3383 9.11396 12.7906 8.5736 13.1162C8.03325 13.4419 7.25875 13.6047 6.25009 13.6047C5.31347 13.6047 4.4309 13.4781 3.58434 13.2067C2.73779 12.9353 1.92726 12.5192 1.13474 11.9765L0 14.4912C0.486318 14.8711 1.06269 15.2148 1.72913 15.4862C2.39557 15.7576 3.11604 15.9747 3.87253 16.1194C4.62903 16.2641 5.42154 16.3365 6.21406 16.3365C7.60097 16.3365 8.77173 16.1375 9.76238 15.7395C10.735 15.3415 11.4915 14.7806 12.0139 14.057C12.5362 13.3333 12.7884 12.4649 12.7884 11.4699C12.7884 10.8367 12.6803 10.294 12.4461 9.80552C12.248 9.33514 11.9058 8.90095 11.4375 8.53912Z"
            fill="#202945" />
        <path
            d="M17.7432 1.03113L14.375 2.1347V4.79413V7.32692V11.7955C14.375 13.2066 14.7352 14.3283 15.4737 15.1243C16.2122 15.9203 17.2749 16.3183 18.6618 16.3183C19.022 16.3183 19.3462 16.3002 19.6705 16.246C19.9767 16.2098 20.3009 16.1193 20.6071 15.9927V13.4056C20.3909 13.4418 20.1928 13.478 20.0127 13.5142C19.8506 13.5323 19.6705 13.5503 19.4903 13.5503C19.1841 13.5503 18.896 13.4961 18.6258 13.3875C18.3556 13.279 18.1395 13.08 17.9774 12.8086C17.8152 12.5372 17.7252 12.1754 17.7252 11.7412V7.30883H20.6071V4.77604H17.7252V1.03113H17.7432Z"
            fill="#202945" />
        <path
            d="M30.4039 6.38614C30.1337 5.89767 29.7554 5.49966 29.2511 5.17402C28.5486 4.72174 27.7561 4.50464 26.8375 4.50464C25.8649 4.50464 25.0003 4.75792 24.2438 5.24638C23.4873 5.75294 22.911 6.44041 22.4787 7.34498C22.0464 8.24955 21.8483 9.28076 21.8483 10.4748C21.8483 11.6507 22.0644 12.6819 22.4787 13.5684C22.893 14.4549 23.4873 15.1243 24.2438 15.6127C25.0003 16.0831 25.8649 16.3364 26.8555 16.3364C27.7561 16.3364 28.5667 16.1193 29.2691 15.6851C29.7735 15.3775 30.1517 14.9614 30.4219 14.473V16.1555H33.736V4.7941H30.4219V6.38614H30.4039ZM29.7194 12.8809C29.2691 13.4418 28.6387 13.7312 27.8102 13.7312C26.9636 13.7312 26.3152 13.4599 25.8649 12.899C25.4146 12.3382 25.1804 11.5241 25.1804 10.4748C25.1804 9.4074 25.4146 8.59329 25.8829 7.99627C26.3512 7.39926 26.9996 7.1098 27.8102 7.1098C28.6207 7.1098 29.2691 7.39926 29.7194 7.97818C30.1697 8.5571 30.4039 9.37122 30.4039 10.4567C30.4039 11.506 30.1697 12.3201 29.7194 12.8809Z"
            fill="#202945" />
        <path
            d="M48.5791 1.03113L45.2109 2.1347V4.79413V7.32692V11.7955C45.2109 13.2066 45.5712 14.3283 46.3097 15.1243C47.0481 15.9203 48.1108 16.3183 49.4977 16.3183C49.858 16.3183 50.1822 16.3002 50.5064 16.246C50.8126 16.2098 51.1368 16.1193 51.443 15.9927V13.4056C51.2269 13.4418 51.0287 13.478 50.8486 13.5142C50.6865 13.5323 50.5064 13.5503 50.3263 13.5503C50.0201 13.5503 49.7319 13.4961 49.4617 13.3875C49.1915 13.279 48.9754 13.08 48.8133 12.8086C48.6512 12.5372 48.5611 12.1754 48.5611 11.7412V7.30883H51.443V4.77604H48.5611V1.03113H48.5791Z"
            fill="#202945" />
        <path
            d="M62.6645 5.24638C61.908 4.73983 61.0435 4.50464 60.0708 4.50464C59.1522 4.50464 58.3417 4.72174 57.6572 5.17402C57.0448 5.57203 56.6306 6.09668 56.3784 6.72988L56.1623 4.7941H52.9922C53.0642 5.33684 53.1183 5.87958 53.1363 6.42232C53.1543 6.96506 53.1723 7.50781 53.1723 8.05055V21.1668H56.5405V14.473C56.8107 14.9614 57.1709 15.3595 57.6572 15.667C58.3417 16.1012 59.1522 16.3183 60.0708 16.3183C61.0435 16.3183 61.908 16.0831 62.6645 15.5946C63.421 15.1243 63.9974 14.4368 64.4297 13.5503C64.8619 12.6638 65.0781 11.6326 65.0781 10.4567C65.0781 9.28076 64.8619 8.23146 64.4297 7.32689C63.9974 6.44041 63.421 5.75294 62.6645 5.24638ZM61.0254 12.899C60.5751 13.4599 59.9447 13.7312 59.1162 13.7312C58.2696 13.7312 57.6212 13.4418 57.1709 12.8809C56.7206 12.3201 56.5045 11.4879 56.5045 10.4205C56.5045 9.35312 56.7206 8.52092 57.1709 7.942C57.6212 7.36307 58.2696 7.07361 59.1162 7.07361C59.9267 7.07361 60.5751 7.38117 61.0254 7.96009C61.4757 8.5571 61.7099 9.38931 61.7099 10.4386C61.6919 11.5241 61.4757 12.3382 61.0254 12.899Z"
            fill="#202945" />
        <path
            d="M74.747 6.38614C74.4768 5.89767 74.0986 5.49966 73.5943 5.17402C72.8918 4.72174 72.0993 4.50464 71.1807 4.50464C70.208 4.50464 69.3435 4.75792 68.587 5.24638C67.8305 5.75294 67.2541 6.44041 66.8218 7.34498C66.3895 8.24955 66.1914 9.28076 66.1914 10.4748C66.1914 11.6507 66.4075 12.6819 66.8218 13.5684C67.2361 14.4549 67.8305 15.1243 68.587 15.6127C69.3435 16.0831 70.208 16.3364 71.1987 16.3364C72.0993 16.3364 72.9098 16.1193 73.6123 15.6851C74.1166 15.3775 74.4948 14.9614 74.765 14.473V16.1555H78.0792V4.7941H74.747V6.38614ZM74.0806 12.8809C73.6303 13.4418 72.9999 13.7312 72.1713 13.7312C71.3248 13.7312 70.6763 13.4599 70.226 12.899C69.7758 12.3382 69.5416 11.5241 69.5416 10.4748C69.5416 9.42549 69.7758 8.59329 70.2441 7.99627C70.7124 7.39926 71.3608 7.1098 72.1713 7.1098C72.9819 7.1098 73.6303 7.39926 74.0806 7.97818C74.5309 8.5571 74.765 9.37122 74.765 10.4567C74.747 11.506 74.5309 12.3201 74.0806 12.8809Z"
            fill="#202945" />
        <path
            d="M88.3488 6.40423C88.0786 5.91577 87.6823 5.51776 87.178 5.19211C86.4755 4.73983 85.665 4.50464 84.7464 4.50464C83.7738 4.50464 82.8912 4.73983 82.1347 5.22829C81.3782 5.69867 80.7838 6.36805 80.3515 7.20025C79.9193 8.05055 79.7031 9.02748 79.7031 10.1672C79.7031 11.307 79.9193 12.302 80.3515 13.1523C80.7838 14.0026 81.3782 14.6539 82.1347 15.1243C82.8912 15.5946 83.7558 15.8298 84.7464 15.8298C85.3588 15.8298 85.9172 15.7213 86.4575 15.4861C86.9799 15.2509 87.4302 14.9614 87.8084 14.5815C88.0246 14.3644 88.2047 14.1292 88.3668 13.8941V15.8841C88.3668 16.8068 88.1326 17.4942 87.6463 17.9465C87.178 18.3988 86.4575 18.6159 85.4849 18.6159C84.8185 18.6159 84.134 18.5254 83.4496 18.3626C82.7651 18.1998 82.0987 17.9465 81.4142 17.6028L80.9099 20.1175C82.2428 20.823 83.8098 21.1668 85.593 21.1668C87.5923 21.1668 89.1233 20.6964 90.1499 19.7557C91.1766 18.8149 91.699 17.44 91.699 15.6127V4.7941H88.3488V6.40423ZM87.6463 12.4287C87.178 12.9714 86.5296 13.2428 85.7191 13.2428C84.9085 13.2428 84.2601 12.9714 83.7738 12.4106C83.2875 11.8678 83.0533 11.108 83.0533 10.1491C83.0533 9.1903 83.2875 8.44856 83.7738 7.90582C84.2421 7.36307 84.9085 7.0917 85.7371 7.0917C86.5656 7.0917 87.214 7.36307 87.6823 7.92391C88.1506 8.46665 88.3668 9.22649 88.3668 10.1672C88.3488 11.1261 88.1146 11.8859 87.6463 12.4287Z"
            fill="#202945" />
        <path
            d="M40.6526 5.30076C40.1843 5.66258 39.8421 6.15105 39.6079 6.74806L39.3738 4.77611H36.2037C36.2757 5.31885 36.3298 5.86159 36.3478 6.40433C36.3658 6.94707 36.3838 7.48981 36.3838 8.03255V16.1375H39.752V10.2035C39.752 9.64268 39.8601 9.15421 40.0762 8.73811C40.2924 8.32201 40.5986 8.01446 40.9948 7.77927C41.3911 7.56218 41.8954 7.43554 42.4898 7.43554C42.85 7.43554 43.2103 7.48981 43.5705 7.59836V4.5771C43.3904 4.54092 43.1922 4.52283 42.9581 4.52283C42.0935 4.52283 41.319 4.77611 40.6526 5.30076Z"
            fill="#202945" />
        <path
            d="M104 10.2035C104 9.02755 103.784 8.01444 103.37 7.14605C102.955 6.27767 102.361 5.62638 101.586 5.156C100.812 4.68563 99.8933 4.45044 98.8487 4.45044C97.7499 4.45044 96.7953 4.70372 95.9668 5.19219C95.1382 5.69874 94.4898 6.38622 94.0215 7.29078C93.5532 8.17726 93.301 9.20847 93.301 10.3844C93.301 11.5965 93.5532 12.6458 94.0395 13.5142C94.5258 14.4007 95.2283 15.0701 96.1469 15.5585C97.0655 16.0289 98.1462 16.2822 99.407 16.2822C100.218 16.2822 101.01 16.1556 101.785 15.9204C102.577 15.6671 103.244 15.3414 103.784 14.9072L102.901 12.6277C102.415 12.9896 101.875 13.2609 101.298 13.4599C100.722 13.6589 100.127 13.7494 99.5331 13.7494C98.5064 13.7494 97.7499 13.4599 97.2456 12.8991C96.9214 12.5192 96.7053 11.9945 96.5972 11.3252H103.964L104 10.2035ZM96.5972 9.02755C96.7053 8.46672 96.8854 8.03253 97.1375 7.6707C97.5698 7.10987 98.1642 6.8385 98.9387 6.8385C99.6592 6.8385 100.2 7.07369 100.578 7.56215C100.866 7.92398 101.028 8.41245 101.1 9.02755H96.5972Z"
            fill="#202945" />
    </g>
    <defs>
        <clipPath id="clip0">
            <rect width="104" height="23.2836" fill="white" />
        </clipPath>
    </defs>
</svg>