<?xml version="1.0" encoding="utf-8"?>
<svg xmlns="http://www.w3.org/2000/svg" viewBox="9.7772 115.5647 511.2369 128" width="511.237px"
    height="128px">
    <g id="Layer_2" data-name="Layer 2"
        transform="matrix(1, 0, 0, 1, 8.97720718383789, 114.76467895507811)">
        <g id="svg2">
            <g id="layer3">
                <g id="g6907">
                    <path id="path6909" class="cls-1"
                        d="M56.8,128.8c56-32,56-32,56-112-24,0-32,0-56-16m0,128c-56-32-56-32-56-112,24,0,32,0,56-16"
                        style="fill: rgb(128, 0, 0); stroke: rgb(255, 255, 255); stroke-linecap: round; stroke-linejoin: round; stroke-width: 1.6px;" />
                </g>
            </g>
            <g id="layer5">
                <circle id="path2996-3" class="cls-2" cx="68.8" cy="60.8" r="16"
                    style="fill: none; stroke: white; stroke-miterlimit: 5.33; stroke-width: 8px;" />
                <g id="text3778">
                    <path id="path3783" class="cls-3"
                        d="M56.8,64.8c0,11-5,16-16,16s-16-5-16-16v-24h8v24c0,7,1,8,8,8s8-1,8-8v-24h8Z"
                        style="fill: white;" />
                </g>
            </g>
            <text class="cls-4" transform="translate(119.49 82.41)"
                style="white-space: pre; font-family: ArialMT, Arial; font-size: 66.02px; line-height: 105.632px; perspective-origin: 196.297px 6.39062px;">uBlock Origin</text>
        </g>
    </g>
</svg>