<?xml version="1.0" encoding="utf-8"?>
<svg xmlns="http://www.w3.org/2000/svg" viewBox="595.746 20.67 234.8609 50.465" width="234.861px" height="50.465px">
  <path data-name="Windscribe logo (monochrome version by krisu)" d="M 641.967 33.114 C 641.25 31.42 640.547 29.72 639.822 28.031 C 633.733 25.57 627.635 23.131 621.548 20.67 C 615.461 23.131 609.365 25.57 603.277 28.031 C 602.55 29.72 601.847 31.42 601.131 33.114 C 599.338 37.377 597.544 41.638 595.746 45.902 C 598.256 51.863 600.768 57.824 603.278 63.786 C 609.369 66.233 615.46 68.682 621.548 71.135 C 627.64 68.687 633.731 66.238 639.818 63.786 C 642.333 57.824 644.843 51.863 647.35 45.902 C 645.556 41.638 643.763 37.377 641.967 33.114 Z M 621.548 67.629 C 616.294 65.533 611.041 63.434 605.788 61.33 C 603.633 56.186 601.483 51.041 599.337 45.899 C 601.488 40.76 603.639 35.62 605.788 30.48 C 611.025 28.393 616.262 26.299 621.497 24.203 C 621.531 24.18 621.577 24.18 621.612 24.203 C 626.849 26.295 632.085 28.389 637.319 30.48 C 639.472 35.62 641.623 40.76 643.771 45.899 C 641.622 51.045 639.471 56.19 637.319 61.33 C 632.056 63.427 621.548 67.629 621.548 67.629 M 621.559 50.093 C 621.554 50.096 621.545 50.096 621.538 50.093 C 619.861 51.745 618.182 53.397 616.505 55.049 C 615.513 56.006 614.097 56.423 612.725 56.443 L 608.623 56.443 L 608.623 35.4 L 613.684 35.4 L 613.684 50.796 C 615.34 49.163 616.997 47.534 618.658 45.908 C 619.615 44.967 620.574 44.025 621.537 43.085 L 621.546 43.075 L 621.556 43.085 C 622.519 44.025 623.479 44.967 624.436 45.908 C 626.098 47.535 627.755 49.165 629.41 50.796 C 629.417 45.665 629.417 40.533 629.41 35.401 L 634.471 35.401 L 634.471 56.443 L 630.37 56.443 C 629 56.423 627.582 56.007 626.59 55.049 C 624.909 53.401 623.231 51.749 621.556 50.094 M 640.882 45.873 L 640.888 45.885 L 640.563 45.885 C 640.178 45.893 639.786 45.885 639.398 45.885 L 635.232 45.885 L 635.232 34.663 L 629.099 34.663 L 628.88 34.88 L 627.71 36.024 C 627.153 36.569 626.576 37.133 626.01 37.689 L 625.785 37.9 L 625.785 45.144 L 624.726 45.144 C 623.838 44.27 622.953 43.402 622.092 42.559 L 621.558 42.043 L 621.546 42.031 L 621.537 42.04 L 621.003 42.564 C 620.144 43.411 619.258 44.275 618.37 45.149 L 617.313 45.149 L 617.313 37.9 L 617.092 37.685 C 616.525 37.129 615.95 36.565 615.391 36.02 L 614.221 34.876 L 614.002 34.659 L 607.868 34.659 L 607.868 45.882 L 603.7 45.882 C 603.316 45.882 602.924 45.89 602.537 45.882 L 602.208 45.882 L 602.213 45.87 L 602.208 45.87 C 604.123 41.445 606.03 37.016 607.933 32.587 C 612.437 30.728 616.944 28.874 621.453 27.02 C 621.511 26.982 621.586 26.982 621.645 27.02 C 626.15 28.878 630.658 30.732 635.167 32.589 C 637.075 37.016 638.983 41.444 640.892 45.872 L 640.882 45.873 Z" style="fill: white;" transform="matrix(1, 0, 0, 1, 2.842170943040401e-14, 0)"/>
  <g id="Artboard" stroke="none" stroke-width="1" fill="none" fill-rule="evenodd" transform="matrix(1.46983802318573, 0, 0, 1.4579910039901733, 210.50039672851562, -431.0108947753906)" style="">
    <g id="Logo" transform="translate(304.000000, 314.000000)">
      <g id="Group-3" transform="translate(36.000000, 3.000000)">
        <mask id="mask-2" fill="white">
          <polygon points="0.8594 0 12.3454 0 12.3454 17.6706 0.8594 17.6706"/>
        </mask>
        <g id="Clip-2"/>
        <path d="M9.6944,15.0086 L7.4854,15.0086 C5.2714,14.8926 3.5094,13.0666 3.5094,10.8226 C3.5094,8.5796 5.2714,6.7536 7.4854,6.6376 C7.4684,6.6376 8.5484,6.6346 9.6944,6.6326 L9.6944,15.0086 Z M9.6944,3.9866 L7.4854,3.9866 C3.8074,4.1046 0.8594,7.1156 0.8594,10.8226 C0.8594,14.5306 3.8074,17.5416 7.4854,17.6596 L9.6944,17.6646 L9.6944,17.6706 L12.3454,17.6706 L12.3454,15.0086 L12.3454,6.6266 L12.3454,3.9866 L12.3454,-0.0004 L9.6944,-0.0004 L9.6944,3.9866 Z" id="Fill-1" fill="white" mask="url(#mask-2)"/>
      </g>
      <g id="Group-6" transform="translate(91.000000, 3.000000)">
        <mask id="mask-4" fill="white">
          <polygon points="0.4443 0 11.9293 0 11.9293 17.6706 0.4443 17.6706"/>
        </mask>
        <g id="Clip-5"/>
        <path d="M5.3033,15.0086 L3.0943,15.0086 L3.0943,6.6326 C4.2403,6.6346 5.3203,6.6376 5.3033,6.6376 C7.5173,6.7536 9.2793,8.5796 9.2793,10.8226 C9.2793,13.0666 7.5173,14.8926 5.3033,15.0086 M5.3033,3.9866 L3.0943,3.9866 L3.0943,-0.0004 L0.4443,-0.0004 L0.4443,3.9866 L0.4443,6.6266 L0.4443,15.0086 L0.4443,17.6706 L3.0943,17.6706 L3.0943,17.6646 L5.3033,17.6596 C8.9813,17.5416 11.9293,14.5306 11.9293,10.8226 C11.9293,7.1156 8.9813,4.1046 5.3033,3.9866" id="Fill-4" fill="white" mask="url(#mask-4)"/>
      </g>
      <g id="Group-9" transform="translate(0.000000, 6.000000)">
        <mask id="mask-6" fill="white">
          <polygon points="0 0.9758 15.9037 0.9758 15.9037 14.6708 0 14.6708"/>
        </mask>
        <g id="Clip-8"/>
        <path d="M13.2527,12.0198 L7.9517,6.2768 L2.6507,12.0198 L2.6507,0.9758 L-0.0003,0.9758 L-0.0003,14.6708 L2.4357,14.6708 C3.1387,14.6708 3.8137,14.3908 4.3107,13.8938 L7.9517,9.8108 L11.5927,13.8938 C12.0897,14.3908 12.7637,14.6708 13.4667,14.6708 L15.9037,14.6708 L15.9037,0.9758 L13.2527,0.9758 L13.2527,12.0198 Z" id="Fill-7" fill="white" mask="url(#mask-6)"/>
      </g>
      <polygon id="Fill-10" fill="white" points="18.305 20.67 20.956 20.67 20.956 6.975 18.305 6.975"/>
      <polygon id="Fill-12" fill="white" points="18.305 5.651 20.956 5.651 20.956 3 18.305 3"/>
      <polygon id="Fill-13" fill="white" points="86.143 20.67 88.794 20.67 88.794 6.975 86.143 6.975"/>
      <polygon id="Fill-14" fill="white" points="86.143 5.651 88.794 5.651 88.794 3 86.143 3"/>
      <path d="M29.3493,6.9758 C28.2093,6.9758 27.1503,7.3118 26.2573,7.8848 L26.2573,6.9758 L23.6063,6.9758 L23.6063,20.6708 L26.2573,20.6708 L26.2573,12.7188 C26.2573,11.0108 27.6413,9.6268 29.3493,9.6268 C31.0573,9.6268 32.4413,11.0108 32.4413,12.7188 L32.4413,20.6708 L35.0923,20.6708 L35.0923,12.7188 C35.0923,9.5468 32.5213,6.9758 29.3493,6.9758" id="Fill-15" fill="white"/>
      <path d="M67.2324,18.0198 C65.0024,18.0198 63.1944,16.1408 63.1944,13.8228 C63.1944,11.5058 65.0024,9.6268 67.2324,9.6268 C68.2864,9.6268 69.2424,10.0488 69.9614,10.7358 L71.8254,8.9198 C70.6384,7.7188 69.0204,6.9758 67.2324,6.9758 C63.5934,6.9758 60.6444,10.0418 60.6444,13.8228 C60.6444,17.6048 63.5934,20.6708 67.2324,20.6708 C69.0514,20.6708 70.6984,19.9038 71.8914,18.6648 L70.0874,16.7908 C69.3574,17.5498 68.3474,18.0198 67.2324,18.0198" id="Fill-16" fill="white"/>
      <path d="M80.0813,6.9758 C78.9413,6.9758 77.8823,7.3118 76.9893,7.8848 L76.9893,6.9758 L74.3383,6.9758 L74.3383,20.6708 L76.9893,20.6708 L76.9893,12.7188 C76.9893,11.0108 78.3733,9.6268 80.0813,9.6268 C81.0473,9.6268 81.9103,10.0698 82.4773,10.7648 L84.3523,8.8888 C83.3013,7.7178 81.7793,6.9758 80.0813,6.9758" id="Fill-17" fill="white"/>
      <path d="M108.4518,11.3317 C109.7198,9.9927 111.6938,9.7847 113.2468,10.6937 L107.9438,16.2927 C107.0278,14.7117 107.1838,12.6707 108.4518,11.3317 Z M115.3558,14.2847 C115.3838,15.3417 115.0298,16.3957 114.2698,17.1977 C113.1088,18.4237 111.3558,18.7027 109.8768,18.0437 L113.4458,14.2757 L114.9878,12.6467 L116.6308,10.9117 L116.8018,10.7317 C116.5318,10.3047 116.2178,9.8977 115.8488,9.5257 C113.2278,6.8827 109.0938,6.8617 106.6148,9.4797 C104.1358,12.0967 104.2508,16.3607 106.8728,19.0037 C109.4938,21.6467 113.6278,21.6677 116.1068,19.0507 C117.3468,17.7417 117.9338,16.0217 117.8848,14.2977 L115.3558,14.2847 Z" id="Fill-18" fill="white"/>
      <path d="M54.0303,9.9086 C54.2673,9.7326 54.5163,9.6246 54.7703,9.5686 C54.7813,9.5666 54.7943,9.5636 54.8053,9.5616 C56.3343,9.2546 58.0163,10.7986 58.0163,10.7986 L59.8803,8.9816 C58.6933,7.7806 57.0753,7.0386 55.2873,7.0386 C54.1703,7.0386 53.0413,7.3466 52.2013,7.9506 C52.1493,7.9866 52.1003,8.0256 52.0493,8.0636 C52.0343,8.0756 52.0183,8.0886 52.0033,8.1016 C51.7723,8.2816 51.5573,8.4796 51.3733,8.7066 C49.9633,10.4366 50.5763,12.8286 52.7423,14.0496 C52.8123,14.0886 52.8713,14.1226 52.9493,14.1656 L54.6003,15.0966 L55.4263,15.5616 L55.6323,15.6786 C56.4303,16.1286 56.6563,17.0096 56.1373,17.6466 C56.0703,17.7296 55.9903,17.8136 55.9023,17.8956 C54.3013,19.1526 51.8623,16.9726 51.8623,16.9726 L49.9983,18.7886 C51.1853,19.9906 52.8033,20.7326 54.5913,20.7326 C56.2023,20.7326 57.6943,20.1686 58.5223,19.1446 C58.5523,19.1106 58.5853,19.0786 58.6143,19.0426 C60.0243,17.3126 59.4113,14.9206 57.2443,13.6996 C57.1753,13.6606 57.1223,13.6306 57.0383,13.5836 L56.2123,13.1186 L54.5613,12.1876 L54.3553,12.0716 C53.5573,11.6216 53.3313,10.7396 53.8503,10.1026 C53.9113,10.0276 53.9693,9.9646 54.0303,9.9086" id="Fill-19" fill="white"/>
    </g>
  </g>
</svg>