<?xml version="1.0" standalone="no"?>
<!DOCTYPE svg PUBLIC "-//W3C//DTD SVG 20010904//EN"
 "http://www.w3.org/TR/2001/REC-SVG-20010904/DTD/svg10.dtd">
<svg version="1.0" xmlns="http://www.w3.org/2000/svg"
 width="788.000000pt" height="1280.000000pt" viewBox="0 0 788.000000 1280.000000"
 preserveAspectRatio="xMidYMid meet">

<g transform="translate(0.000000,1280.000000) scale(0.100000,-0.100000)"
fill="#000000" stroke="none">
<path d="M382 12757 l-42 -43 43 -42 43 -42 349 0 349 0 48 41 c27 23 51 39
54 36 3 -2 -14 -20 -36 -40 l-41 -35 -54 -288 -55 -288 25 -38 c14 -21 28 -38
31 -38 4 0 111 66 122 75 2 2 86 465 94 523 5 34 -57 121 -124 175 l-60 47
-352 0 -352 0 -42 -43z"/>
<path d="M1983 12762 c-24 -21 -43 -41 -43 -44 0 -4 19 -25 43 -47 l42 -40
349 -1 348 0 49 41 c27 22 49 44 49 49 0 4 -21 24 -47 44 l-46 36 -351 0 -351
-1 -42 -37z"/>
<path d="M3712 12762 c-23 -20 -42 -40 -42 -44 0 -4 19 -25 43 -47 l42 -40
349 -1 348 0 49 41 c27 22 49 44 49 49 0 4 -21 24 -47 44 l-46 36 -351 0 -351
-1 -43 -37z"/>
<path d="M5262 12759 l-44 -41 43 -44 43 -44 350 0 350 0 48 41 c27 23 51 39
54 36 3 -2 -14 -21 -37 -40 l-41 -36 -54 -287 -54 -288 25 -38 c14 -21 28 -38
31 -38 4 0 112 66 122 75 2 1 24 125 51 274 l47 271 -34 53 c-19 29 -61 74
-94 100 l-60 47 -351 0 -352 -1 -43 -40z"/>
<path d="M6992 12759 l-44 -41 43 -44 43 -44 351 0 350 0 53 45 53 44 -52 40
-51 41 -351 0 -352 -1 -43 -40z"/>
<path d="M2789 12667 l-46 -42 -52 -283 -52 -283 22 -39 c13 -22 26 -40 31
-40 5 0 34 17 66 37 31 21 58 37 59 38 3 0 93 519 93 538 0 15 -65 118 -73
117 -1 0 -23 -19 -48 -43z"/>
<path d="M282 12663 l-42 -38 -51 -279 -52 -279 24 -44 c13 -24 26 -42 30 -41
3 2 33 21 66 42 l60 40 51 280 51 281 -42 37 c-23 21 -45 38 -48 38 -4 0 -25
-17 -47 -37z"/>
<path d="M3613 12668 l-42 -31 -27 -146 c-15 -80 -39 -209 -54 -286 l-26 -140
25 -42 25 -41 38 21 c96 54 91 44 142 332 25 144 46 269 46 278 0 15 -66 86
-81 87 -3 0 -24 -14 -46 -32z"/>
<path d="M6894 12667 l-41 -32 -53 -284 -53 -284 24 -44 c13 -24 26 -42 30
-41 3 2 33 21 66 42 l60 39 51 281 51 281 -42 37 c-23 21 -44 38 -47 38 -3 0
-23 -15 -46 -33z"/>
<path d="M2264 12599 c-2 -4 -13 -120 -24 -258 l-21 -252 22 -35 22 -36 37 39
c30 30 46 65 84 173 45 132 46 138 46 255 l0 120 -81 0 c-44 0 -83 -3 -85 -6z"/>
<path d="M5544 12595 c-2 -5 -12 -121 -23 -257 l-20 -248 20 -35 c12 -19 24
-35 27 -34 4 0 21 17 38 37 20 24 47 83 77 167 43 123 46 137 49 253 l3 124
-84 1 c-48 1 -85 -2 -87 -8z"/>
<path d="M711 12032 l-43 -37 18 -51 18 -51 80 -7 c169 -13 185 -10 240 39
l49 44 -26 44 c-31 52 -48 57 -197 57 l-95 0 -44 -38z"/>
<path d="M2306 12031 l-38 -39 16 -50 17 -49 82 -6 c45 -4 107 -7 137 -7 53 0
58 2 103 48 l46 47 -26 42 c-32 48 -48 53 -198 53 l-101 0 -38 -39z"/>
<path d="M7321 12032 l-44 -38 18 -51 18 -50 81 -7 c45 -3 106 -6 136 -6 52 0
58 3 103 46 l47 45 -25 43 c-30 51 -47 56 -195 56 l-95 0 -44 -38z"/>
<path d="M278 12024 c-32 -20 -58 -40 -58 -45 0 -6 15 -28 32 -49 l33 -40 151
0 151 0 29 38 c47 58 47 59 17 97 l-28 35 -135 0 -135 -1 -57 -35z"/>
<path d="M6855 12001 c-144 -94 -134 -73 -194 -398 l-52 -283 23 -40 c13 -22
27 -40 31 -40 4 0 34 18 67 40 41 28 60 48 64 67 15 72 86 489 86 506 0 10
-14 39 -31 63 -40 58 -32 67 13 14 l35 -40 151 0 150 0 37 50 37 50 -29 34
-28 35 -135 0 -136 1 -89 -59z"/>
<path d="M150 11932 l-43 -38 -53 -284 c-30 -157 -51 -292 -49 -300 3 -8 15
-28 28 -44 l24 -29 60 41 c44 30 63 50 67 69 17 81 86 485 86 502 0 21 -59
120 -71 121 -4 0 -26 -17 -49 -38z"/>
<path d="M1048 11927 l-47 -42 -50 -274 c-28 -150 -51 -281 -51 -290 0 -9 18
-31 41 -49 37 -32 41 -33 62 -18 75 53 71 40 122 332 l47 272 -38 56 c-20 31
-37 56 -38 56 -1 -1 -22 -20 -48 -43z"/>
<path d="M2646 11928 l-46 -43 -54 -285 -54 -285 42 -37 c22 -21 44 -38 47
-38 4 0 26 17 50 39 l43 38 48 269 47 269 -38 58 -38 58 -47 -43z"/>
<path d="M3473 11928 l-41 -43 -52 -279 c-54 -291 -54 -298 -15 -350 13 -17
16 -17 74 18 33 21 63 41 65 45 3 4 26 128 52 275 l46 267 -36 54 c-20 30 -40
55 -44 55 -4 0 -26 -19 -49 -42z"/>
<path d="M5928 11927 l-47 -42 -50 -272 c-28 -149 -51 -280 -51 -290 0 -25 76
-86 93 -76 20 12 72 57 79 68 3 6 27 130 53 276 l47 267 -38 56 c-20 31 -37
56 -38 56 -1 0 -22 -19 -48 -43z"/>
<path d="M2217 11902 c-51 -53 -120 -255 -136 -403 -6 -57 -14 -121 -17 -141
l-6 -38 95 0 c83 0 96 2 101 18 10 39 48 511 42 533 -3 13 -14 34 -24 47 l-17
22 -38 -38z"/>
<path d="M5498 11902 c-52 -54 -123 -275 -138 -427 -6 -60 -13 -120 -16 -132
-4 -23 -3 -23 94 -23 l98 0 25 268 c25 260 25 268 7 304 -10 20 -22 39 -26 42
-5 3 -25 -12 -44 -32z"/>
<path d="M1721 11256 l-42 -43 46 -40 47 -40 350 -6 351 -6 54 47 54 46 -38
33 c-21 18 -54 37 -73 43 -21 6 -172 10 -370 10 l-336 0 -43 -44z"/>
<path d="M3451 11256 l-42 -43 45 -40 45 -40 352 -6 352 -6 54 47 54 46 -38
33 c-21 18 -54 37 -73 43 -21 6 -172 10 -370 10 l-336 0 -43 -44z"/>
<path d="M5005 11257 l-47 -42 48 -41 49 -41 350 -6 351 -6 53 48 54 47 -41
33 c-23 18 -56 36 -74 42 -18 5 -182 9 -364 9 l-332 0 -47 -43z"/>
<path d="M6734 11257 l-46 -42 49 -41 48 -41 350 -6 349 -6 54 46 54 46 -38
33 c-22 19 -55 38 -74 44 -21 6 -171 10 -368 10 l-333 0 -45 -43z"/>
<path d="M380 10580 l-45 -40 45 -45 44 -45 349 0 348 0 55 44 54 44 -49 41
-49 41 -353 0 -354 -1 -45 -39z"/>
<path d="M2031 10576 l-42 -43 48 -42 48 -41 343 0 344 0 54 42 c30 24 54 45
54 48 -1 3 -22 22 -48 43 l-47 37 -355 0 -356 0 -43 -44z"/>
<path d="M5292 10577 l-43 -43 50 -42 50 -42 343 0 343 0 50 41 c28 23 50 45
50 49 0 5 -20 24 -45 44 l-45 36 -355 0 -356 0 -42 -43z"/>
<path d="M7757 10537 l-47 -42 -50 -270 c-27 -149 -50 -279 -50 -290 0 -11 10
-37 23 -58 l23 -37 64 42 65 43 42 235 c60 342 59 306 15 367 l-38 52 -47 -42z"/>
<path d="M284 10489 l-41 -31 -53 -285 -53 -286 19 -34 c10 -20 24 -37 30 -40
7 -2 39 12 71 33 l59 37 52 281 51 281 -39 38 c-22 20 -43 37 -48 37 -5 0 -26
-14 -48 -31z"/>
<path d="M1932 10483 l-40 -38 -52 -282 -51 -281 26 -40 27 -40 61 39 c33 22
62 41 63 42 2 2 26 129 53 282 l51 279 -37 38 c-20 21 -42 38 -49 38 -6 0 -30
-17 -52 -37z"/>
<path d="M4451 10479 l-44 -39 -54 -283 -53 -282 22 -42 c12 -24 27 -43 32
-43 5 0 35 17 67 37 l58 38 21 115 c11 63 33 186 48 272 l28 158 -35 55 c-20
30 -38 55 -41 54 -3 0 -25 -18 -49 -40z"/>
<path d="M3569 10497 c-71 -56 -63 -32 -119 -335 -56 -296 -56 -301 -15 -355
12 -17 17 -16 77 24 l64 43 51 280 51 281 -42 37 c-46 42 -45 42 -67 25z"/>
<path d="M5577 10408 c-3 -13 -13 -131 -23 -264 l-18 -241 23 -32 24 -33 32
34 c24 24 45 69 79 165 45 124 48 139 53 262 l6 131 -85 0 c-81 0 -86 -1 -91
-22z"/>
<path d="M279 9846 c-32 -21 -59 -44 -59 -50 0 -6 16 -28 35 -48 l35 -38 124
0 c163 0 174 3 214 55 l34 44 -29 36 c-15 19 -30 35 -33 35 -3 0 -63 2 -133 3
l-129 2 -59 -39z"/>
<path d="M706 9851 l-38 -39 18 -49 18 -50 135 -7 136 -6 49 49 49 49 -32 46
-32 46 -132 0 -133 0 -38 -39z"/>
<path d="M2363 9850 l-43 -40 19 -48 19 -47 132 -8 132 -8 49 42 c27 22 49 46
49 52 -1 7 -13 30 -28 52 l-28 40 -129 2 -130 3 -42 -40z"/>
<path d="M3971 9841 l-44 -38 18 -50 c21 -60 30 -63 190 -62 l100 0 48 44 49
45 -28 44 c-26 42 -30 44 -87 50 -33 3 -92 6 -131 6 -68 -1 -73 -2 -115 -39z"/>
<path d="M3532 9830 l-63 -40 38 -45 37 -45 152 0 152 0 37 51 38 50 -34 35
-33 34 -130 0 -131 0 -63 -40z"/>
<path d="M6712 9797 l-42 -43 -54 -284 -53 -285 23 -37 c14 -21 28 -38 33 -38
4 0 34 17 66 38 l59 37 48 274 47 273 -37 54 c-20 29 -39 53 -42 54 -3 0 -25
-19 -48 -43z"/>
<path d="M7604 9788 l-41 -43 -52 -283 -52 -283 43 -38 43 -39 36 29 c20 15
41 35 48 43 11 13 101 492 101 537 0 23 -61 119 -75 119 -6 0 -29 -19 -51 -42z"/>
<path d="M144 9748 l-39 -43 -53 -282 -52 -283 25 -40 25 -40 40 22 c93 53 86
37 135 316 25 140 45 262 45 273 0 24 -61 119 -76 119 -6 0 -29 -19 -50 -42z"/>
<path d="M1802 9752 l-43 -37 -53 -285 -54 -285 24 -42 c14 -24 27 -43 30 -43
18 0 125 85 129 103 3 12 25 134 49 271 l44 249 -35 54 c-20 29 -39 53 -42 53
-3 0 -25 -17 -49 -38z"/>
<path d="M2700 9747 l-45 -42 -54 -284 -53 -283 38 -39 c21 -22 43 -39 49 -39
5 1 29 18 52 39 l42 38 47 268 c52 296 52 283 -9 358 l-22 27 -45 -43z"/>
<path d="M3408 9739 l-46 -44 -51 -282 -52 -282 23 -41 c13 -22 27 -40 31 -40
21 0 125 81 130 102 3 13 24 134 48 270 46 271 47 260 -10 329 l-27 31 -46
-43z"/>
<path d="M4307 9736 l-46 -41 -51 -271 c-27 -149 -50 -280 -50 -292 0 -27 74
-86 94 -75 8 4 29 22 48 39 l34 31 47 270 48 271 -39 55 -38 55 -47 -42z"/>
<path d="M5532 9727 c-50 -51 -119 -266 -137 -427 -8 -69 -15 -133 -15 -142 0
-16 11 -18 95 -18 52 0 95 3 95 7 0 4 12 125 26 269 l25 263 -21 40 c-11 23
-24 41 -28 41 -5 0 -22 -15 -40 -33z"/>
<path d="M6690 9125 l-44 -45 49 -45 50 -44 350 0 350 0 50 45 50 45 -40 34
c-22 19 -49 37 -60 39 -11 3 -175 7 -365 10 l-346 6 -44 -45z"/>
<path d="M1780 9081 l-45 -40 45 -45 45 -45 354 -2 355 -1 49 43 50 43 -49 43
-49 43 -355 0 -355 0 -45 -39z"/>
<path d="M5041 9079 l-45 -40 45 -44 44 -44 359 -2 358 -1 44 43 c24 24 44 46
44 49 -1 3 -23 22 -49 43 l-49 37 -354 0 -353 -1 -44 -40z"/>
<path d="M6896 8245 l-90 -85 -53 -281 -53 -281 26 -43 25 -44 61 40 c34 22
63 41 65 43 2 2 26 128 54 281 l50 278 -43 45 c-34 36 -37 41 -13 25 17 -12
39 -30 49 -42 19 -21 26 -21 365 -21 l346 0 50 41 c28 23 50 45 50 49 0 4 -20
24 -43 44 l-44 36 -356 0 -357 -1 -89 -84z"/>
<path d="M283 8242 l-42 -37 -52 -280 -51 -280 22 -43 c13 -24 29 -41 35 -38
6 2 37 20 67 40 l55 35 17 93 c9 51 32 176 50 278 l33 185 -40 43 c-23 23 -44
42 -47 42 -3 0 -24 -17 -47 -38z"/>
<path d="M4428 8216 l-47 -41 -51 -270 c-27 -149 -50 -279 -50 -289 0 -19 40
-96 49 -96 3 1 33 20 66 43 l60 43 48 269 47 269 -37 57 -38 57 -47 -42z"/>
<path d="M2023 8212 l-42 -37 -51 -269 c-27 -147 -50 -277 -50 -287 0 -19 38
-89 48 -89 4 0 34 18 67 39 l60 38 51 281 50 282 -41 40 c-22 22 -43 40 -45
40 -3 0 -24 -17 -47 -38z"/>
<path d="M3522 8217 c-23 -18 -44 -41 -47 -52 -3 -11 -28 -141 -55 -289 l-50
-270 25 -38 c14 -21 27 -38 30 -38 4 0 110 65 123 75 2 2 102 552 102 565 0 3
-19 22 -43 42 l-43 36 -42 -31z"/>
<path d="M7752 8197 l-42 -42 -50 -267 c-27 -146 -50 -275 -50 -287 0 -20 37
-91 48 -91 3 0 33 18 66 40 l61 39 48 272 48 272 -36 54 c-19 29 -39 53 -43
53 -4 0 -27 -19 -50 -43z"/>
<path d="M6089 8183 l-46 -48 -52 -282 -52 -282 27 -40 26 -40 60 37 c33 20
63 46 67 57 4 11 27 134 51 273 43 247 44 254 27 285 -10 18 -28 45 -40 60
l-22 28 -46 -48z"/>
<path d="M5182 8182 l-42 -37 -52 -282 -52 -282 20 -36 c10 -20 23 -39 27 -42
4 -3 36 13 70 36 l62 40 51 281 50 280 -41 40 c-22 22 -43 40 -45 40 -3 0 -24
-17 -48 -38z"/>
<path d="M962 8088 c-37 -51 -78 -108 -90 -125 -13 -18 -40 -81 -62 -140 -21
-60 -43 -120 -49 -135 l-11 -28 60 0 60 0 108 146 108 147 18 105 c20 116 18
122 -41 122 -30 0 -39 -9 -101 -92z"/>
<path d="M3660 8155 c0 -3 -7 -48 -15 -100 l-16 -95 56 -171 57 -170 46 3 47
3 3 145 3 145 -47 110 c-26 60 -52 116 -57 123 -9 11 -77 18 -77 7z"/>
<path d="M4173 8027 c-82 -112 -94 -136 -137 -256 -25 -73 -46 -134 -46 -137
0 -2 26 -4 58 -4 l58 0 99 136 c55 75 103 142 107 149 4 6 16 59 26 117 l19
106 -30 6 c-58 12 -63 8 -154 -117z"/>
<path d="M5327 8123 c-3 -4 -11 -50 -18 -101 l-13 -94 55 -166 55 -167 46 -3
46 -3 6 143 7 143 -54 125 c-54 124 -54 125 -90 128 -19 2 -37 -1 -40 -5z"/>
<path d="M273 7598 l-62 -41 36 -43 35 -44 154 0 153 0 35 44 c20 23 36 46 36
49 0 4 -14 22 -31 42 l-31 35 -132 -1 -131 -1 -62 -40z"/>
<path d="M149 7503 l-46 -48 -52 -279 -51 -279 25 -43 25 -43 64 41 c38 24 66
50 69 62 3 11 24 133 48 269 42 242 43 249 26 280 -10 18 -28 45 -40 60 l-22
28 -46 -48z"/>
<path d="M1888 7473 l-46 -48 -52 -281 -52 -281 26 -41 26 -42 62 40 c34 22
63 41 64 43 1 1 24 123 50 271 52 297 52 283 -9 359 l-23 27 -46 -47z"/>
<path d="M3386 7479 l-47 -44 -43 -235 c-25 -129 -49 -258 -54 -287 -8 -48 -7
-55 18 -92 l26 -40 64 42 64 43 47 270 48 269 -39 59 -38 59 -46 -44z"/>
<path d="M4280 7472 l-43 -38 -53 -279 c-29 -154 -53 -285 -54 -291 0 -7 20
-28 44 -48 l44 -36 46 43 47 42 44 253 c25 140 45 262 45 273 0 19 -59 118
-71 119 -4 0 -26 -17 -49 -38z"/>
<path d="M6712 7462 l-42 -37 -54 -285 -53 -285 23 -40 c13 -22 27 -41 31 -42
4 -1 35 17 68 40 l59 42 48 270 48 270 -35 52 c-20 29 -39 53 -43 53 -4 0 -26
-17 -50 -38z"/>
<path d="M7611 7458 l-45 -42 -54 -286 -53 -285 42 -37 c23 -21 44 -38 48 -38
3 1 25 18 48 38 l42 37 46 256 c25 140 45 265 45 277 0 17 -64 123 -73 122 -1
0 -22 -19 -46 -42z"/>
<path d="M5050 7447 l-46 -42 -53 -286 -53 -286 27 -41 27 -41 62 41 c33 23
62 42 63 42 1 1 23 122 49 270 52 297 52 284 -9 359 l-22 27 -45 -43z"/>
<path d="M5943 7440 l-42 -40 -54 -286 -54 -285 45 -39 44 -40 47 41 46 41 48
271 47 271 -35 53 c-19 29 -39 53 -43 53 -4 0 -26 -18 -49 -40z"/>
<path d="M726 7378 c-21 -227 -23 -210 37 -353 l54 -130 34 0 34 0 19 116 19
116 -59 156 -59 157 -36 0 -37 0 -6 -62z"/>
<path d="M5627 7338 c-4 -24 -9 -90 -12 -148 l-5 -105 53 -125 c51 -119 55
-125 84 -128 37 -4 35 -7 58 134 l16 101 -58 154 -59 154 -36 3 c-35 3 -36 2
-41 -40z"/>
<path d="M1866 6803 l-45 -43 47 -45 47 -45 355 0 354 0 47 46 47 47 -48 38
-48 38 -356 3 -355 3 -45 -42z"/>
<path d="M6690 6790 l-45 -40 47 -45 47 -45 356 0 355 0 45 41 c25 23 45 44
45 48 -1 3 -23 23 -49 44 l-49 37 -354 0 -353 -1 -45 -39z"/>
<path d="M381 6049 l-44 -40 43 -44 44 -45 350 0 350 0 47 40 c60 51 79 52 21
1 l-43 -38 -54 -287 -54 -288 25 -39 c13 -21 26 -39 29 -39 4 0 109 65 123 75
2 2 85 464 94 523 5 33 -56 120 -122 175 l-58 47 -354 0 -353 -1 -44 -40z"/>
<path d="M2021 6048 l-44 -41 46 -44 46 -43 347 0 347 0 53 43 c29 23 53 44
53 47 0 3 -22 22 -48 43 l-49 37 -354 0 -353 -1 -44 -41z"/>
<path d="M3661 6046 l-42 -43 47 -42 47 -41 346 0 346 0 50 41 c28 23 51 44
52 47 1 4 -20 24 -47 45 l-48 37 -354 0 -354 0 -43 -44z"/>
<path d="M5302 6047 l-42 -42 50 -43 49 -42 344 0 344 0 52 41 c29 23 51 45
49 49 -2 4 -23 24 -46 44 l-44 36 -357 0 -357 0 -42 -43z"/>
<path d="M6820 6050 l-45 -40 45 -45 44 -45 349 0 348 0 55 44 54 44 -49 41
-49 41 -353 0 -354 -1 -45 -39z"/>
<path d="M2832 5960 l-43 -38 -54 -287 -54 -287 25 -39 c13 -21 27 -39 30 -39
4 0 112 67 122 76 2 1 26 125 52 275 l48 272 -35 54 c-20 29 -39 53 -42 53 -3
-1 -25 -18 -49 -40z"/>
<path d="M4471 5956 l-43 -44 -53 -283 -53 -283 25 -38 c14 -21 28 -38 31 -38
18 0 123 79 127 95 3 11 25 134 50 273 l44 254 -36 54 c-20 30 -39 54 -42 54
-4 0 -26 -20 -50 -44z"/>
<path d="M283 5958 l-40 -33 -53 -287 -54 -287 27 -40 27 -41 63 42 64 42 51
280 51 281 -41 38 c-22 20 -44 37 -48 37 -4 0 -26 -15 -47 -32z"/>
<path d="M1922 5953 l-41 -38 -52 -280 -52 -281 27 -42 26 -42 65 43 c35 23
65 45 65 48 0 3 22 129 50 280 l49 274 -39 38 c-22 20 -43 37 -48 37 -5 0 -28
-17 -50 -37z"/>
<path d="M3562 5953 l-40 -38 -52 -281 -52 -281 26 -41 26 -42 62 40 c34 22
63 42 65 43 1 2 25 129 52 282 l50 280 -36 37 c-21 21 -42 38 -49 38 -6 0 -30
-17 -52 -37z"/>
<path d="M5207 5957 l-38 -33 -53 -284 -54 -285 25 -43 25 -43 27 17 c86 57
101 68 105 83 3 9 26 134 52 279 l47 264 -39 39 c-21 21 -43 39 -49 39 -5 -1
-27 -15 -48 -33z"/>
<path d="M7105 5888 c-2 -7 -13 -124 -25 -260 l-20 -247 22 -36 21 -37 37 39
c29 30 47 65 83 168 43 124 46 136 49 255 l3 125 -83 3 c-60 2 -84 -1 -87 -10z"/>
<path d="M710 5322 l-42 -37 18 -52 18 -51 134 -7 135 -7 49 50 50 49 -27 41
c-31 47 -48 52 -190 52 l-102 0 -43 -38z"/>
<path d="M3993 5318 l-41 -43 18 -45 17 -45 74 -6 c41 -4 101 -7 134 -8 58 -1
63 1 110 43 l50 44 -22 38 c-31 57 -52 64 -183 64 l-116 0 -41 -42z"/>
<path d="M5637 5322 c-42 -43 -42 -43 -21 -98 l16 -42 135 -7 135 -8 48 48 48
47 -27 43 c-31 51 -43 55 -190 55 l-107 0 -37 -38z"/>
<path d="M277 5314 c-31 -19 -57 -40 -57 -45 0 -6 15 -28 32 -49 l33 -40 135
0 c74 0 145 3 156 6 12 3 36 26 53 50 l32 44 -28 35 -28 35 -135 0 -136 0 -57
-36z"/>
<path d="M3558 5314 c-32 -20 -58 -39 -58 -44 0 -4 15 -26 33 -49 l32 -41 153
3 c150 2 154 3 173 27 53 67 53 66 24 105 l-27 35 -137 0 -136 -1 -57 -35z"/>
<path d="M5200 5313 c-30 -19 -57 -37 -59 -39 -2 -1 14 -23 34 -48 l37 -46
148 0 148 0 41 49 42 50 -32 35 -31 36 -137 -1 -136 0 -55 -36z"/>
<path d="M146 5218 l-42 -43 -52 -284 -53 -284 26 -39 26 -39 38 22 c93 52 87
38 136 316 25 139 45 262 45 273 0 22 -60 120 -74 120 -5 0 -27 -19 -50 -42z"/>
<path d="M1790 5222 l-42 -37 -54 -288 -54 -288 25 -39 c14 -22 28 -40 31 -40
5 0 124 79 124 83 1 1 22 123 49 270 l48 269 -36 54 c-20 29 -39 54 -42 54 -4
0 -25 -17 -49 -38z"/>
<path d="M2689 5217 l-47 -42 -52 -284 -53 -283 41 -41 c39 -39 41 -40 64 -24
77 55 72 40 123 333 l47 271 -37 57 c-21 31 -38 56 -39 56 -1 -1 -22 -20 -47
-43z"/>
<path d="M3432 5222 l-43 -37 -54 -288 -54 -289 26 -39 c14 -21 28 -39 30 -39
18 0 124 85 128 103 3 12 25 134 49 272 l43 249 -35 53 c-19 29 -38 53 -41 53
-3 0 -25 -17 -49 -38z"/>
<path d="M5971 5216 l-44 -45 -53 -283 -54 -283 42 -37 c24 -21 45 -38 48 -38
3 0 24 17 48 38 l44 37 44 250 c24 138 45 261 46 275 1 22 -58 129 -72 130 -3
0 -25 -20 -49 -44z"/>
<path d="M7058 5193 c-53 -54 -122 -265 -137 -418 -6 -60 -14 -123 -16 -138
l-5 -28 98 3 97 3 26 270 26 270 -24 38 c-13 20 -25 37 -26 37 -2 0 -19 -17
-39 -37z"/>
<path d="M2370 5136 c0 -8 -5 -71 -11 -139 l-10 -124 57 -137 c57 -136 57
-137 88 -134 30 3 30 4 47 98 10 52 18 108 18 124 1 16 -24 96 -55 177 l-57
149 -38 0 c-27 0 -39 -4 -39 -14z"/>
<path d="M4010 5128 c0 -13 -5 -75 -10 -140 l-10 -116 51 -124 c28 -67 56
-129 62 -136 6 -7 22 -12 36 -10 25 3 27 8 43 98 9 52 17 108 17 125 1 16 -24
96 -55 177 l-56 148 -39 0 c-34 0 -39 -3 -39 -22z"/>
<path d="M1765 4548 l-46 -43 48 -41 48 -41 352 -5 352 -6 52 47 52 47 -53 42
-53 42 -352 0 -353 0 -47 -42z"/>
<path d="M5052 4547 l-43 -44 44 -40 43 -40 355 -6 354 -5 48 46 c26 25 47 49
47 52 -1 3 -23 22 -49 43 l-49 37 -354 0 -354 0 -42 -43z"/>
<path d="M1191 3826 l-44 -45 -53 -282 -53 -282 22 -38 c12 -21 26 -39 30 -39
5 0 35 16 68 36 54 34 59 39 68 88 11 51 77 431 83 474 3 20 -58 132 -72 132
-3 0 -25 -20 -49 -44z"/>
<path d="M283 3822 l-42 -37 -52 -279 -52 -279 24 -44 c13 -23 25 -43 27 -43
1 0 31 18 66 40 l63 40 50 282 51 283 -41 37 c-23 20 -44 37 -47 38 -3 0 -24
-17 -47 -38z"/>
<path d="M4472 3729 l-43 -40 -53 -282 c-56 -298 -56 -294 -14 -351 14 -17 17
-17 77 20 34 22 64 48 67 59 2 11 24 134 48 274 l44 254 -35 53 c-20 30 -39
54 -42 54 -3 0 -25 -19 -49 -41z"/>
<path d="M2018 3727 l-37 -32 -51 -271 c-27 -149 -50 -279 -50 -290 0 -10 10
-36 23 -56 l22 -38 65 43 65 42 47 260 c26 143 47 272 48 287 0 19 -11 35 -39
57 -21 17 -43 31 -47 31 -5 -1 -26 -15 -46 -33z"/>
<path d="M3562 3723 l-40 -38 -52 -281 -52 -282 27 -40 27 -40 61 39 c33 22
62 41 63 42 2 2 26 129 53 282 l50 280 -36 37 c-21 21 -42 38 -49 38 -6 0 -30
-17 -52 -37z"/>
<path d="M5347 3663 c-2 -5 -10 -51 -16 -103 l-13 -95 55 -160 54 -160 45 -3
c44 -3 46 -2 52 29 3 17 6 82 6 143 l0 111 -52 122 -52 123 -38 0 c-20 0 -39
-3 -41 -7z"/>
<path d="M6886 3653 c-3 -10 -10 -54 -16 -98 l-10 -80 53 -165 54 -165 52 -3
51 -3 0 143 0 143 -51 123 -52 122 -38 0 c-27 0 -39 -5 -43 -17z"/>
<path d="M2675 3540 c-78 -109 -92 -135 -136 -258 -27 -75 -49 -139 -49 -141
0 -4 120 6 124 11 32 39 196 269 203 283 8 16 43 192 43 219 0 3 -22 6 -49 6
l-49 0 -87 -120z"/>
<path d="M5865 3549 c-44 -61 -84 -118 -89 -126 -13 -24 -96 -256 -96 -270 0
-14 56 -16 97 -5 14 4 64 64 126 148 l103 141 17 95 c24 134 25 128 -30 128
l-48 0 -80 -111z"/>
<path d="M7400 3542 c-71 -98 -91 -136 -126 -232 -24 -63 -46 -128 -49 -143
-7 -26 -6 -27 31 -26 71 2 81 10 188 155 l104 140 20 112 19 112 -51 0 -51 -1
-85 -117z"/>
<path d="M151 3091 l-44 -39 -54 -283 -53 -284 22 -42 c12 -24 26 -43 31 -43
6 0 109 61 124 74 4 4 93 516 93 536 0 19 -59 120 -70 119 -3 0 -25 -17 -49
-38z"/>
<path d="M1047 3082 l-46 -47 -50 -269 c-28 -147 -51 -276 -51 -286 0 -18 69
-80 86 -80 5 1 28 18 50 38 l42 37 47 272 47 272 -39 55 -40 55 -46 -47z"/>
<path d="M1883 2988 l-41 -43 -52 -280 -52 -280 24 -43 c12 -23 28 -40 34 -38
23 9 124 77 124 84 0 4 20 121 45 261 25 140 45 260 45 268 0 19 -63 113 -75
113 -6 0 -29 -19 -52 -42z"/>
<path d="M3432 2992 l-43 -37 -54 -288 -54 -289 26 -39 c14 -21 28 -39 30 -39
4 0 123 79 123 83 1 1 23 123 49 271 l49 269 -35 54 c-20 29 -39 53 -42 53 -3
0 -25 -17 -49 -38z"/>
<path d="M4329 2987 l-47 -42 -52 -284 -51 -284 37 -38 c21 -22 43 -39 49 -39
5 1 29 18 51 38 l42 38 47 268 c46 260 47 270 31 301 -9 17 -27 43 -39 57
l-22 27 -46 -42z"/>
<path d="M7078 2963 c-52 -55 -115 -247 -134 -408 -7 -66 -14 -132 -14 -147
l0 -28 95 0 c84 0 95 2 95 18 0 9 11 131 25 270 l25 254 -22 39 c-12 21 -24
39 -28 39 -3 0 -22 -17 -42 -37z"/>
<path d="M2085 2786 l-109 -145 -21 -130 -21 -131 48 0 48 0 88 133 c76 114
95 151 135 267 26 74 47 138 47 143 0 4 -24 7 -53 7 l-52 0 -110 -144z"/>
<path d="M3723 2908 c-11 -13 -61 -78 -111 -145 l-91 -121 -21 -120 c-11 -65
-20 -124 -20 -131 0 -7 19 -11 48 -11 l48 0 87 134 c74 113 95 155 137 275
l50 141 -53 0 c-43 0 -58 -5 -74 -22z"/>
<path d="M4015 2918 c-2 -7 -9 -72 -14 -145 l-11 -131 51 -124 c28 -67 56
-129 62 -136 6 -7 22 -12 36 -10 25 3 27 8 43 98 9 52 17 111 17 130 -1 19
-26 100 -57 180 -56 143 -57 145 -90 148 -20 2 -34 -2 -37 -10z"/>
<path d="M5267 2785 l-108 -145 -19 -112 c-27 -156 -29 -148 28 -148 l47 0 87
133 c75 113 94 152 137 275 l50 142 -57 -1 -57 0 -108 -144z"/>
<path d="M5657 2923 c-3 -5 -10 -70 -16 -146 l-11 -136 51 -123 c28 -68 56
-129 62 -136 6 -7 22 -12 36 -10 25 3 27 8 43 98 9 52 17 109 17 125 1 17 -25
98 -57 180 -56 146 -58 150 -89 153 -17 2 -33 -1 -36 -5z"/>
<path d="M126 2416 l-48 -43 47 -40 47 -40 171 -6 c95 -4 254 -7 355 -7 l183
0 51 48 50 48 -46 35 -45 36 -248 6 c-136 4 -297 7 -358 7 l-110 -1 -49 -43z"/>
<path d="M297 1637 l-48 -42 46 -45 46 -45 347 -3 347 -2 54 48 54 48 -44 36
-44 35 -355 6 -355 6 -48 -42z"/>
<path d="M853 1357 c-80 -109 -94 -136 -136 -253 -26 -72 -47 -134 -47 -138 0
-3 26 -6 58 -6 l57 0 100 137 c55 75 104 142 108 150 11 18 45 221 39 228 -3
3 -24 5 -47 5 l-42 0 -90 -123z"/>
<path d="M262 602 l-111 -147 -20 -123 c-12 -68 -21 -125 -21 -128 0 -2 23 -4
50 -4 l51 0 86 132 c73 112 93 152 135 271 26 76 48 141 48 143 0 2 -24 4 -54
4 l-54 0 -110 -148z"/>
<path d="M40 135 c-28 -28 -40 -48 -35 -54 6 -5 30 -25 53 -45 l44 -36 346 0
347 1 50 45 50 45 -40 34 c-22 19 -49 37 -60 39 -11 3 -176 7 -366 10 l-346 5
-43 -44z"/>
</g>
</svg>
